<?xml version="1.0" encoding="utf-8"?>
<!-- Generator: Adobe Illustrator 24.2.0, SVG Export Plug-In . SVG Version: 6.00 Build 0)  -->
<svg version="1.1" id="Capa_1" xmlns="http://www.w3.org/2000/svg" xmlns:xlink="http://www.w3.org/1999/xlink" x="0px" y="0px"
	 viewBox="0 0 534.9 186.31" style="enable-background:new 0 0 534.9 186.31;" xml:space="preserve">
<style type="text/css">
	.st0{fill:url(#SVGID_1_);}
	.st1{fill:url(#SVGID_2_);}
	.st2{fill:url(#SVGID_3_);}
	.st3{fill:url(#SVGID_4_);}
	.st4{fill:url(#SVGID_5_);}
	.st5{fill:url(#SVGID_6_);}
	.st6{fill:url(#SVGID_7_);}
	.st7{fill:url(#SVGID_8_);}
	.st8{fill:url(#SVGID_9_);}
	.st9{fill:url(#SVGID_10_);}
	.st10{fill:url(#SVGID_11_);}
	.st11{fill:url(#SVGID_12_);}
	.st12{fill:url(#SVGID_13_);}
	.st13{fill:url(#SVGID_14_);}
	.st14{fill:url(#SVGID_15_);}
	.st15{fill:url(#SVGID_16_);}
	.st16{fill:url(#SVGID_17_);}
	.st17{fill:url(#SVGID_18_);}
	.st18{fill:url(#SVGID_19_);}
	.st19{fill:url(#SVGID_20_);}
	.st20{fill:url(#SVGID_21_);}
	.st21{fill:url(#SVGID_22_);}
	.st22{fill:url(#SVGID_23_);}
	.st23{fill:url(#SVGID_24_);}
	.st24{fill:url(#SVGID_25_);}
	.st25{fill:url(#SVGID_26_);}
	.st26{fill:url(#SVGID_27_);}
	.st27{fill:url(#SVGID_28_);}
	.st28{fill:url(#SVGID_29_);}
	.st29{fill:#9CAFAB;}
	.st30{fill:#2E548E;}
	.st31{fill:#55C0CC;}
	.st32{fill:#2F425B;}
	.st33{fill:#FFFFFF;}
</style>
<g>
	<g>
		<g>
			<linearGradient id="SVGID_1_" gradientUnits="userSpaceOnUse" x1="-3.2067" y1="143.0389" x2="83.0688" y2="93.2277">
				<stop  offset="0" style="stop-color:#55C0CC"/>
				<stop  offset="0.5" style="stop-color:#7C69C1"/>
				<stop  offset="1" style="stop-color:#2E548E"/>
			</linearGradient>
			<path class="st0" d="M126.82,172.28l-25.54,8.82c-4.47,1.54-11.77,1.54-16.24,0l-74.04-25.57c-4-1.38-7.37-6.52-7.37-11.23V41.86
				c0-4.7,3.38-9.84,7.37-11.21l4.74-1.63c1.81-0.62,1.81-3.18,0-3.81l0,0c-0.43-0.15-0.89-0.15-1.31,0l-4.48,1.54
				C4.46,28.64,0,35.41,0,41.86v102.44c0,6.45,4.45,13.23,9.93,15.12L83.97,185c2.53,0.87,5.86,1.31,9.18,1.31
				c3.33,0,6.65-0.44,9.18-1.31l25.8-8.91c1.81-0.62,1.81-3.18,0-3.81h0C127.71,172.14,127.24,172.14,126.82,172.28z"/>
			<linearGradient id="SVGID_2_" gradientUnits="userSpaceOnUse" x1="101.0243" y1="94.004" x2="189.4211" y2="42.9681">
				<stop  offset="0" style="stop-color:#55C0CC"/>
				<stop  offset="0.5" style="stop-color:#7C69C1"/>
				<stop  offset="1" style="stop-color:#2E548E"/>
			</linearGradient>
			<path class="st1" d="M56.51,15l28.51-9.8c2.2-0.76,5.16-1.14,8.13-1.14c2.96,0,5.92,0.38,8.13,1.14l74.04,25.45
				c4,1.37,7.37,6.51,7.37,11.21l0,102.44c0,4.71-3.38,9.85-7.37,11.23l-1.75,0.6c-1.81,0.62-1.81,3.18,0,3.81h0
				c0.43,0.15,0.89,0.15,1.32,0l1.49-0.52c5.48-1.89,9.93-8.67,9.93-15.12l0-102.44c0-6.45-4.46-13.23-9.94-15.11L102.34,1.31
				c-5.06-1.74-13.3-1.74-18.37,0l-28.11,9.66c-1.81,0.62-1.81,3.18-0.01,3.81L56.51,15z"/>
		</g>
		<g>
			<linearGradient id="SVGID_3_" gradientUnits="userSpaceOnUse" x1="136.9514" y1="51.1083" x2="160.6305" y2="37.4372">
				<stop  offset="0" style="stop-color:#7C69C1"/>
				<stop  offset="1" style="stop-color:#55C0CC"/>
			</linearGradient>
			<path class="st2" d="M148.79,38.81c1.14,0,2.29,0.15,3.15,0.45l11.24,3.91c1.73,0.6,1.73,1.59,0,2.19l-11.24,3.91
				c-0.87,0.3-2.01,0.45-3.15,0.45c-1.14,0-2.28-0.15-3.15-0.45l-11.24-3.91c-1.73-0.6-1.73-1.59,0-2.19l11.24-3.91
				C146.51,38.96,147.65,38.81,148.79,38.81"/>
		</g>
		<g>
			<linearGradient id="SVGID_4_" gradientUnits="userSpaceOnUse" x1="82.1329" y1="32.057" x2="105.8083" y2="18.388">
				<stop  offset="0" style="stop-color:#2E548E"/>
				<stop  offset="0.5" style="stop-color:#7C69C1"/>
				<stop  offset="1" style="stop-color:#55C0CC"/>
			</linearGradient>
			<path class="st3" d="M93.97,19.76c1.14,0,2.29,0.15,3.15,0.45l11.24,3.91c1.73,0.6,1.73,1.59,0,2.19l-11.24,3.91
				c-0.87,0.3-2.01,0.45-3.15,0.45s-2.28-0.15-3.15-0.45l-11.24-3.91c-1.73-0.6-1.73-1.59,0-2.19l11.24-3.91
				C91.69,19.91,92.83,19.76,93.97,19.76"/>
		</g>
		<g>
			<g>
				<linearGradient id="SVGID_5_" gradientUnits="userSpaceOnUse" x1="15.6327" y1="129.4502" x2="114.791" y2="72.2011">
					<stop  offset="0" style="stop-color:#55C0CC"/>
					<stop  offset="0.5" style="stop-color:#7C69C1"/>
					<stop  offset="1" style="stop-color:#2E548E"/>
				</linearGradient>
				<path class="st4" d="M39.1,38.84c1.16,0,2.31,0.15,3.19,0.46l11.17,3.89c1.75,0.61,1.75,1.61,0,2.22l-11.17,3.89
					c-1.75,0.61-2.6,2.66-1.88,4.56l17.18,45.36c0.37,0.97,0.87,1.45,1.39,1.45c0.5,0,1.01-0.45,1.41-1.36l14.49-32.59
					c0.82-1.85,2.93-3.86,4.68-4.47l11.17-3.89c0.88-0.31,2.03-0.46,3.19-0.46c1.16,0,2.31,0.15,3.19,0.46l11.17,3.89
					c1.75,0.61,1.75,1.61,0,2.22l-11.17,3.89c-1.75,0.61-3.19,2.8-3.19,4.87v90.29c0,1.7-0.97,2.8-2.28,2.8
					c-0.29,0-0.59-0.05-0.9-0.16l-11.12-3.9c-1.75-0.61-3.19-2.81-3.19-4.87v-50.62c0-1.11-0.19-1.67-0.5-1.67
					c-0.26,0-0.61,0.42-0.99,1.28l-10.01,22.51c-0.66,1.48-2.15,2.43-3.62,2.43c-0.36,0-0.72-0.06-1.07-0.18l-7.43-2.58
					c-1.75-0.61-3.78-2.66-4.5-4.56l-7.9-20.87c-0.34-0.9-0.65-1.34-0.88-1.34c-0.26,0-0.42,0.55-0.42,1.64v41.02
					c0,1.7-0.97,2.81-2.29,2.81c-0.28,0-0.59-0.05-0.9-0.16l-11.17-3.89c-1.75-0.61-3.19-2.8-3.19-4.87V48.05
					c0-2.07,1.43-4.26,3.19-4.87l11.17-3.89C36.79,38.99,37.95,38.84,39.1,38.84"/>
			</g>
		</g>
		<linearGradient id="SVGID_6_" gradientUnits="userSpaceOnUse" x1="86.7093" y1="112.98" x2="173.9453" y2="62.6143">
			<stop  offset="0" style="stop-color:#9CAFAB"/>
			<stop  offset="0.3" style="stop-color:#C2BBA7"/>
			<stop  offset="1" style="stop-color:#E0E0E0"/>
		</linearGradient>
		<path class="st5" d="M164.78,138.75l-24.3-51.81c-0.86-1.83-0.63-4.65,0.5-6.28l23.3-33.43c0.16-0.23,0.28-0.46,0.38-0.7
			c-0.26,0.15-0.57,0.29-0.92,0.42l-11.24,3.91c-1.01,0.35-2.32,0.54-3.7,0.54c-1.38,0-2.69-0.19-3.7-0.54l-4.14-1.44l-8.74,12.55
			c-1.13,1.63-2.76,1.46-3.62-0.37l-15.51-33.08c-0.4-0.86-1.09-1.75-1.88-2.52c-0.24,0.64-0.84,1.39-2.28,1.89l-9.29,3.23
			c0.6,1.27,1.2,2.56,1.65,3.52l18.56,39.52c0.86,1.83,0.63,4.65-0.5,6.28l-23.36,33.52c-0.11,0.16-0.25,0.33-0.38,0.5v13.9
			c0.55-0.08,1.07-0.19,1.51-0.35l11.17-3.89c1.75-0.61,4.12-2.44,5.25-4.06l14.59-20.93c1.13-1.63,2.76-1.46,3.62,0.37l15.56,33.13
			c0.86,1.83,0.12,3.82-1.63,4.43l-11.22,3.91c-1.75,0.61-1.75,1.61,0,2.22l11.17,3.89c1.75,0.61,4.62,0.61,6.38,0l11.17-3.89
			C164.9,142.57,165.64,140.58,164.78,138.75z"/>
		<linearGradient id="SVGID_7_" gradientUnits="userSpaceOnUse" x1="93.1517" y1="164.1614" x2="106.8676" y2="156.2425">
			<stop  offset="0" style="stop-color:#C2BBA7"/>
			<stop  offset="1" style="stop-color:#E0E0E0"/>
		</linearGradient>
		<path class="st6" d="M108.32,160.07l-11.24-3.91c-0.44-0.15-0.94-0.27-1.48-0.34v7.7c0,1.24-0.38,2.31-1.03,3.09
			c0.92-0.05,1.81-0.19,2.51-0.43l11.24-3.91C110.05,161.66,110.05,160.67,108.32,160.07z"/>
		<linearGradient id="SVGID_8_" gradientUnits="userSpaceOnUse" x1="39.742" y1="142.1377" x2="54.7996" y2="142.1377">
			<stop  offset="0" style="stop-color:#9CAFAB"/>
			<stop  offset="1" style="stop-color:#C2BBA7"/>
		</linearGradient>
		<path class="st7" d="M53.5,140.99l-11.24-3.91c-0.44-0.15-0.94-0.27-1.49-0.34v7.7c0,1.24-0.38,2.31-1.03,3.1
			c0.92-0.05,1.81-0.19,2.51-0.43l11.24-3.91C55.23,142.58,55.23,141.6,53.5,140.99z"/>
	</g>
	<g>
		<g>
			<linearGradient id="SVGID_9_" gradientUnits="userSpaceOnUse" x1="244.1269" y1="139.6097" x2="503.6819" y2="109.5785">
				<stop  offset="0" style="stop-color:#9CAFAB"/>
				<stop  offset="1" style="stop-color:#C2BBA7"/>
			</linearGradient>
			<path class="st8" d="M251.8,146.63l-4.68-13.47h-0.09c0.12,2,0.19,3.88,0.19,5.63v7.84h-2.39V130.5h3.72l4.48,12.83h0.07
				l4.61-12.83h3.73v16.13h-2.54v-7.98c0-0.8,0.02-1.85,0.06-3.13c0.04-1.29,0.08-2.07,0.11-2.34h-0.09l-4.84,13.45H251.8z"/>
			<linearGradient id="SVGID_10_" gradientUnits="userSpaceOnUse" x1="244.3828" y1="141.821" x2="503.9377" y2="111.7899">
				<stop  offset="0" style="stop-color:#9CAFAB"/>
				<stop  offset="1" style="stop-color:#C2BBA7"/>
			</linearGradient>
			<path class="st9" d="M277.06,146.63h-9.12V130.5h9.12v2.23h-6.49v4.39h6.08v2.21h-6.08v5.06h6.49V146.63z"/>
			<linearGradient id="SVGID_11_" gradientUnits="userSpaceOnUse" x1="244.5438" y1="143.2125" x2="504.0987" y2="113.1813">
				<stop  offset="0" style="stop-color:#9CAFAB"/>
				<stop  offset="1" style="stop-color:#C2BBA7"/>
			</linearGradient>
			<path class="st10" d="M288.37,146.63h-2.64v-13.87h-4.74v-2.26h12.12v2.26h-4.74V146.63z"/>
			<linearGradient id="SVGID_12_" gradientUnits="userSpaceOnUse" x1="244.8242" y1="145.6367" x2="504.3792" y2="115.6056">
				<stop  offset="0" style="stop-color:#9CAFAB"/>
				<stop  offset="1" style="stop-color:#C2BBA7"/>
			</linearGradient>
			<path class="st11" d="M307.85,146.63l-1.61-4.48h-6.17l-1.58,4.48h-2.78l6.03-16.19h2.87l6.03,16.19H307.85z M305.55,139.88
				l-1.51-4.39c-0.11-0.29-0.26-0.76-0.46-1.39c-0.2-0.63-0.33-1.1-0.4-1.39c-0.2,0.9-0.49,1.89-0.87,2.97l-1.46,4.2H305.55z"/>
			<linearGradient id="SVGID_13_" gradientUnits="userSpaceOnUse" x1="245.1124" y1="148.1272" x2="504.6674" y2="118.0961">
				<stop  offset="0" style="stop-color:#9CAFAB"/>
				<stop  offset="1" style="stop-color:#C2BBA7"/>
			</linearGradient>
			<path class="st12" d="M332.29,146.63h-9.12V130.5h9.12v2.23h-6.49v4.39h6.08v2.21h-6.08v5.06h6.49V146.63z"/>
			<linearGradient id="SVGID_14_" gradientUnits="userSpaceOnUse" x1="245.3155" y1="149.8826" x2="504.8705" y2="119.8514">
				<stop  offset="0" style="stop-color:#9CAFAB"/>
				<stop  offset="1" style="stop-color:#C2BBA7"/>
			</linearGradient>
			<path class="st13" d="M349.92,146.63h-3.03l-4.04-6.6l-4.07,6.6h-2.82l5.35-8.36l-5.01-7.77h2.93l3.73,6.1l3.73-6.1h2.85
				l-5.04,7.81L349.92,146.63z"/>
			<linearGradient id="SVGID_15_" gradientUnits="userSpaceOnUse" x1="245.4815" y1="151.3168" x2="505.0364" y2="121.2857">
				<stop  offset="0" style="stop-color:#9CAFAB"/>
				<stop  offset="1" style="stop-color:#C2BBA7"/>
			</linearGradient>
			<path class="st14" d="M365.03,135.38c0,1.68-0.55,2.97-1.65,3.87c-1.1,0.9-2.67,1.35-4.71,1.35h-1.68v6.03h-2.64V130.5h4.64
				c2.01,0,3.52,0.41,4.53,1.24C364.52,132.56,365.03,133.78,365.03,135.38z M356.98,138.38h1.4c1.35,0,2.35-0.24,2.98-0.71
				c0.63-0.47,0.95-1.21,0.95-2.21c0-0.93-0.28-1.62-0.85-2.07c-0.57-0.46-1.45-0.68-2.65-0.68h-1.83V138.38z"/>
			<linearGradient id="SVGID_16_" gradientUnits="userSpaceOnUse" x1="245.7377" y1="153.5319" x2="505.2927" y2="123.5007">
				<stop  offset="0" style="stop-color:#9CAFAB"/>
				<stop  offset="1" style="stop-color:#C2BBA7"/>
			</linearGradient>
			<path class="st15" d="M379.63,146.63h-9.12V130.5h9.12v2.23h-6.49v4.39h6.08v2.21h-6.08v5.06h6.49V146.63z"/>
			<linearGradient id="SVGID_17_" gradientUnits="userSpaceOnUse" x1="245.9538" y1="155.3993" x2="505.5088" y2="125.3682">
				<stop  offset="0" style="stop-color:#9CAFAB"/>
				<stop  offset="1" style="stop-color:#C2BBA7"/>
			</linearGradient>
			<path class="st16" d="M388.01,140.19v6.44h-2.64V130.5h4.56c2.08,0,3.62,0.39,4.62,1.17c1,0.78,1.5,1.96,1.5,3.53
				c0,2.01-1.04,3.44-3.13,4.29l4.56,7.14h-3l-3.86-6.44H388.01z M388.01,138.01h1.83c1.23,0,2.12-0.23,2.67-0.68
				c0.55-0.46,0.83-1.13,0.83-2.03c0-0.91-0.3-1.57-0.89-1.96c-0.6-0.4-1.49-0.6-2.69-0.6h-1.74V138.01z"/>
			<linearGradient id="SVGID_18_" gradientUnits="userSpaceOnUse" x1="246.1119" y1="156.7655" x2="505.6668" y2="126.7344">
				<stop  offset="0" style="stop-color:#9CAFAB"/>
				<stop  offset="1" style="stop-color:#C2BBA7"/>
			</linearGradient>
			<path class="st17" d="M402.07,146.63V130.5h2.64v16.13H402.07z"/>
			<linearGradient id="SVGID_19_" gradientUnits="userSpaceOnUse" x1="246.325" y1="158.6078" x2="505.88" y2="128.5766">
				<stop  offset="0" style="stop-color:#9CAFAB"/>
				<stop  offset="1" style="stop-color:#C2BBA7"/>
			</linearGradient>
			<path class="st18" d="M418.2,146.63l-4.68-13.47h-0.09c0.12,2,0.19,3.88,0.19,5.63v7.84h-2.39V130.5h3.72l4.48,12.83h0.07
				l4.61-12.83h3.73v16.13h-2.54v-7.98c0-0.8,0.02-1.85,0.06-3.13c0.04-1.29,0.08-2.07,0.11-2.34h-0.09l-4.84,13.45H418.2z"/>
			<linearGradient id="SVGID_20_" gradientUnits="userSpaceOnUse" x1="246.5809" y1="160.8191" x2="506.1358" y2="130.788">
				<stop  offset="0" style="stop-color:#9CAFAB"/>
				<stop  offset="1" style="stop-color:#C2BBA7"/>
			</linearGradient>
			<path class="st19" d="M443.45,146.63h-9.12V130.5h9.12v2.23h-6.49v4.39h6.08v2.21h-6.08v5.06h6.49V146.63z"/>
			<linearGradient id="SVGID_21_" gradientUnits="userSpaceOnUse" x1="246.8058" y1="162.7628" x2="506.3607" y2="132.7316">
				<stop  offset="0" style="stop-color:#9CAFAB"/>
				<stop  offset="1" style="stop-color:#C2BBA7"/>
			</linearGradient>
			<path class="st20" d="M462.63,146.63h-3.23l-7.93-12.85h-0.09l0.06,0.72c0.1,1.37,0.15,2.62,0.15,3.75v8.38h-2.39V130.5h3.2
				l7.91,12.78h0.07c-0.01-0.17-0.04-0.78-0.09-1.85c-0.04-1.06-0.07-1.89-0.07-2.49v-8.45h2.42V146.63z"/>
			<linearGradient id="SVGID_22_" gradientUnits="userSpaceOnUse" x1="247.0055" y1="164.4887" x2="506.5604" y2="134.4575">
				<stop  offset="0" style="stop-color:#9CAFAB"/>
				<stop  offset="1" style="stop-color:#C2BBA7"/>
			</linearGradient>
			<path class="st21" d="M474.72,146.63h-2.64v-13.87h-4.74v-2.26h12.12v2.26h-4.74V146.63z"/>
			<linearGradient id="SVGID_23_" gradientUnits="userSpaceOnUse" x1="247.286" y1="166.9129" x2="506.8409" y2="136.8817">
				<stop  offset="0" style="stop-color:#9CAFAB"/>
				<stop  offset="1" style="stop-color:#C2BBA7"/>
			</linearGradient>
			<path class="st22" d="M494.2,146.63l-1.61-4.48h-6.17l-1.58,4.48h-2.78l6.03-16.19h2.87l6.03,16.19H494.2z M491.89,139.88
				l-1.51-4.39c-0.11-0.29-0.26-0.76-0.46-1.39c-0.2-0.63-0.33-1.1-0.4-1.39c-0.2,0.9-0.49,1.89-0.87,2.97l-1.46,4.2H491.89z"/>
			<linearGradient id="SVGID_24_" gradientUnits="userSpaceOnUse" x1="247.469" y1="168.4949" x2="507.0239" y2="138.4638">
				<stop  offset="0" style="stop-color:#9CAFAB"/>
				<stop  offset="1" style="stop-color:#C2BBA7"/>
			</linearGradient>
			<path class="st23" d="M501.39,146.63V130.5h2.64v13.87h6.83v2.26H501.39z"/>
		</g>
		<linearGradient id="SVGID_25_" gradientUnits="userSpaceOnUse" x1="473.6937" y1="111.6774" x2="534.8782" y2="50.4929">
			<stop  offset="0" style="stop-color:#9CAFAB"/>
			<stop  offset="1" style="stop-color:#C2BBA7"/>
		</linearGradient>
		<path class="st24" d="M520.55,104.55l-13.3-19.13l-13.06,19.12c-0.21,0.31-0.57,0.5-0.94,0.5h-12.17c-0.93,0-1.47-1.06-0.92-1.81
			l19.59-26.92l-17.6-24.6c-0.95-1.32,0-3.16,1.63-3.16h9.93c0.65,0,1.26,0.31,1.63,0.84l10.75,15.16c0.8,1.13,2.48,1.12,3.27-0.01
			l10.53-15.13c0.37-0.54,0.99-0.86,1.64-0.86h9.17c1.63,0,2.58,1.85,1.62,3.17l-17.41,24.11l19.76,27.41
			c0.54,0.76,0,1.81-0.93,1.81h-12.27C521.11,105.04,520.76,104.86,520.55,104.55z"/>
		<g>
			<linearGradient id="SVGID_26_" gradientUnits="userSpaceOnUse" x1="216.8251" y1="101.4235" x2="449.2753" y2="47.5791">
				<stop  offset="0" style="stop-color:#55C0CC"/>
				<stop  offset="0.5" style="stop-color:#7C69C1"/>
				<stop  offset="1" style="stop-color:#2E548E"/>
			</linearGradient>
			<path class="st25" d="M313.92,81.47h25.09c0.63,0,1.14-0.51,1.14-1.14V73.3c0-1.1-0.9-2-2-2h-22.23c-1.1,0-2-0.9-2-2v-8.27
				c0-1.1,0.9-2,2-2h25.71c1.1,0,2-0.9,2-2v-6.49c0-1.1-0.9-2-2-2h-38.7c-1.1,0-2,0.9-2,2v53.36c0,0.63,0.51,1.14,1.14,1.14h41.47
				c0.63,0,1.14-0.51,1.14-1.14v-8.21c0-0.63-0.51-1.14-1.14-1.14h-29.61V81.47z"/>
			<linearGradient id="SVGID_27_" gradientUnits="userSpaceOnUse" x1="218.7907" y1="112.4488" x2="452.2272" y2="58.3759">
				<stop  offset="0" style="stop-color:#55C0CC"/>
				<stop  offset="0.5" style="stop-color:#7C69C1"/>
				<stop  offset="1" style="stop-color:#2E548E"/>
			</linearGradient>
			<path class="st26" d="M404.02,48.54h-45.24c-1.1,0-2,0.9-2,2v6.65c0,1.1,0.9,2,2,2h14.08c1.1,0,2,0.9,2,2v42.71
				c0,0.63,0.51,1.14,1.14,1.14h10.79c0.63,0,1.14-0.51,1.14-1.14V61.19c0-1.1,0.9-2,2-2h14.08c1.1,0,2-0.9,2-2v-6.65
				C406.02,49.43,405.12,48.54,404.02,48.54z"/>
			<linearGradient id="SVGID_28_" gradientUnits="userSpaceOnUse" x1="227.1896" y1="129.5262" x2="456.2986" y2="76.4557">
				<stop  offset="0" style="stop-color:#55C0CC"/>
				<stop  offset="0.5" style="stop-color:#7C69C1"/>
				<stop  offset="1" style="stop-color:#2E548E"/>
			</linearGradient>
			<path class="st27" d="M461.28,105.04h11.19c0.83,0,1.38-0.85,1.04-1.61l-24.02-53.71c-0.32-0.72-1.04-1.18-1.83-1.18h-10.32
				c-0.79,0-1.51,0.46-1.83,1.19l-23.94,53.71c-0.34,0.76,0.22,1.61,1.04,1.61h11.64h0.07l3.61-8.71h28.96l3.32,8.01
				C460.4,104.76,460.81,105.04,461.28,105.04z M433.36,83.25l7.22-17.42c0.68-1.65,3.01-1.65,3.7,0l7.21,17.42H433.36z"/>
		</g>
		<linearGradient id="SVGID_29_" gradientUnits="userSpaceOnUse" x1="213.3994" y1="84.87" x2="445.0531" y2="31.2101">
			<stop  offset="0" style="stop-color:#55C0CC"/>
			<stop  offset="0.5" style="stop-color:#7C69C1"/>
			<stop  offset="1" style="stop-color:#2E548E"/>
		</linearGradient>
		<path class="st28" d="M277.79,48.79h-7.57c-0.7,0-1.35,0.37-1.71,0.98l-20.15,33.98L227.3,48.79h-10.77v55.11
			c0,0.63,0.51,1.14,1.14,1.14h9.94c0.63,0,1.14-0.51,1.14-1.14V75.18c0-0.9,1.18-1.23,1.65-0.46l14.83,24.37h5.87l14.91-25.04
			c0.46-0.77,1.65-0.45,1.65,0.45l0.07,29.4c0,0.63,0.51,1.13,1.14,1.13h9.94c0.63,0,1.14-0.51,1.14-1.14l-0.15-53.12
			C279.77,49.68,278.88,48.79,277.79,48.79z"/>
	</g>
</g>
<g>
	<g>
		<g>
			<path class="st29" d="M251.8,409.63l-4.68-13.47h-0.09c0.12,2,0.19,3.88,0.19,5.63v7.84h-2.39V393.5h3.72l4.48,12.83h0.07
				l4.61-12.83h3.73v16.13h-2.54v-7.98c0-0.8,0.02-1.85,0.06-3.13s0.08-2.07,0.11-2.34h-0.09l-4.84,13.45H251.8z"/>
			<path class="st29" d="M277.06,409.63h-9.12V393.5h9.12v2.23h-6.49v4.39h6.08v2.21h-6.08v5.06h6.49V409.63z"/>
			<path class="st29" d="M288.37,409.63h-2.64v-13.87h-4.74v-2.26h12.12v2.26h-4.74V409.63z"/>
			<path class="st29" d="M307.85,409.63l-1.61-4.48h-6.17l-1.58,4.48h-2.78l6.03-16.19h2.87l6.03,16.19H307.85z M305.55,402.88
				l-1.51-4.39c-0.11-0.29-0.26-0.76-0.46-1.39c-0.2-0.63-0.33-1.1-0.4-1.39c-0.2,0.9-0.49,1.89-0.87,2.97l-1.46,4.2H305.55z"/>
			<path class="st29" d="M332.29,409.63h-9.12V393.5h9.12v2.23h-6.49v4.39h6.08v2.21h-6.08v5.06h6.49V409.63z"/>
			<path class="st29" d="M349.92,409.63h-3.03l-4.04-6.6l-4.07,6.6h-2.82l5.35-8.36l-5.01-7.77h2.93l3.73,6.1l3.73-6.1h2.85
				l-5.04,7.81L349.92,409.63z"/>
			<path class="st29" d="M365.03,398.38c0,1.68-0.55,2.97-1.65,3.87c-1.1,0.9-2.67,1.35-4.71,1.35h-1.68v6.03h-2.64V393.5h4.64
				c2.01,0,3.52,0.41,4.53,1.24C364.52,395.56,365.03,396.78,365.03,398.38z M356.98,401.38h1.4c1.35,0,2.35-0.24,2.98-0.71
				c0.63-0.47,0.95-1.21,0.95-2.21c0-0.93-0.28-1.62-0.85-2.07c-0.57-0.46-1.45-0.68-2.65-0.68h-1.83V401.38z"/>
			<path class="st29" d="M379.63,409.63h-9.12V393.5h9.12v2.23h-6.49v4.39h6.08v2.21h-6.08v5.06h6.49V409.63z"/>
			<path class="st29" d="M388.01,403.19v6.44h-2.64V393.5h4.56c2.08,0,3.62,0.39,4.62,1.17c1,0.78,1.5,1.96,1.5,3.53
				c0,2.01-1.04,3.44-3.13,4.29l4.56,7.14h-3l-3.86-6.44H388.01z M388.01,401.01h1.83c1.23,0,2.12-0.23,2.67-0.68
				c0.55-0.46,0.83-1.13,0.83-2.03c0-0.91-0.3-1.57-0.89-1.96c-0.6-0.4-1.49-0.6-2.69-0.6h-1.74V401.01z"/>
			<path class="st29" d="M402.07,409.63V393.5h2.64v16.13H402.07z"/>
			<path class="st29" d="M418.2,409.63l-4.68-13.47h-0.09c0.12,2,0.19,3.88,0.19,5.63v7.84h-2.39V393.5h3.72l4.48,12.83h0.07
				l4.61-12.83h3.73v16.13h-2.54v-7.98c0-0.8,0.02-1.85,0.06-3.13c0.04-1.29,0.08-2.07,0.11-2.34h-0.09l-4.84,13.45H418.2z"/>
			<path class="st29" d="M443.45,409.63h-9.12V393.5h9.12v2.23h-6.49v4.39h6.08v2.21h-6.08v5.06h6.49V409.63z"/>
			<path class="st29" d="M462.63,409.63h-3.23l-7.93-12.85h-0.09l0.06,0.72c0.1,1.37,0.15,2.62,0.15,3.75v8.38h-2.39V393.5h3.2
				l7.91,12.78h0.07c-0.01-0.17-0.04-0.78-0.09-1.85c-0.04-1.06-0.07-1.89-0.07-2.49v-8.45h2.42V409.63z"/>
			<path class="st29" d="M474.72,409.63h-2.64v-13.87h-4.74v-2.26h12.12v2.26h-4.74V409.63z"/>
			<path class="st29" d="M494.2,409.63l-1.61-4.48h-6.17l-1.58,4.48h-2.78l6.03-16.19h2.87l6.03,16.19H494.2z M491.89,402.88
				l-1.51-4.39c-0.11-0.29-0.26-0.76-0.46-1.39c-0.2-0.63-0.33-1.1-0.4-1.39c-0.2,0.9-0.49,1.89-0.87,2.97l-1.46,4.2H491.89z"/>
			<path class="st29" d="M501.39,409.63V393.5h2.64v13.87h6.83v2.26H501.39z"/>
		</g>
		<path class="st29" d="M520.55,367.55l-13.3-19.13l-13.06,19.12c-0.21,0.31-0.57,0.5-0.94,0.5h-12.17c-0.93,0-1.47-1.06-0.92-1.81
			l19.59-26.92l-17.6-24.6c-0.95-1.32,0-3.16,1.63-3.16h9.93c0.65,0,1.26,0.31,1.63,0.84l10.75,15.16c0.8,1.13,2.48,1.12,3.27-0.01
			l10.53-15.13c0.37-0.54,0.99-0.86,1.64-0.86h9.17c1.63,0,2.58,1.85,1.62,3.17l-17.41,24.11l19.76,27.41
			c0.54,0.76,0,1.81-0.93,1.81h-12.27C521.11,368.04,520.76,367.86,520.55,367.55z"/>
		<g>
			<path class="st30" d="M313.92,344.47h25.09c0.63,0,1.14-0.51,1.14-1.14v-7.03c0-1.1-0.9-2-2-2h-22.23c-1.1,0-2-0.9-2-2v-8.27
				c0-1.1,0.9-2,2-2h25.71c1.1,0,2-0.9,2-2v-6.49c0-1.1-0.9-2-2-2h-38.7c-1.1,0-2,0.9-2,2v53.36c0,0.63,0.51,1.14,1.14,1.14h41.47
				c0.63,0,1.14-0.51,1.14-1.14v-8.21c0-0.63-0.51-1.14-1.14-1.14h-29.61V344.47z"/>
			<path class="st30" d="M404.02,311.54h-45.24c-1.1,0-2,0.9-2,2v6.65c0,1.1,0.9,2,2,2h14.08c1.1,0,2,0.9,2,2v42.71
				c0,0.63,0.51,1.14,1.14,1.14h10.79c0.63,0,1.14-0.51,1.14-1.14v-42.71c0-1.1,0.9-2,2-2h14.08c1.1,0,2-0.9,2-2v-6.65
				C406.02,312.43,405.12,311.54,404.02,311.54z"/>
			<path class="st30" d="M461.28,368.04h11.19c0.83,0,1.38-0.85,1.04-1.61l-24.02-53.71c-0.32-0.72-1.04-1.18-1.83-1.18h-10.32
				c-0.79,0-1.51,0.46-1.83,1.19l-23.94,53.71c-0.34,0.76,0.22,1.61,1.04,1.61h11.64h0.07l3.61-8.71h28.96l3.32,8.01
				C460.4,367.76,460.81,368.04,461.28,368.04z M433.36,346.25l7.22-17.42c0.68-1.65,3.01-1.65,3.7,0l7.21,17.42H433.36z"/>
		</g>
		<path class="st30" d="M277.79,311.79h-7.57c-0.7,0-1.35,0.37-1.71,0.98l-20.15,33.98l-21.05-34.95h-10.77v55.11
			c0,0.63,0.51,1.14,1.14,1.14h9.94c0.63,0,1.14-0.51,1.14-1.14v-28.72c0-0.9,1.18-1.23,1.65-0.46l14.83,24.37h5.87l14.91-25.04
			c0.46-0.77,1.65-0.45,1.65,0.45l0.07,29.4c0,0.63,0.51,1.13,1.14,1.13h9.94c0.63,0,1.14-0.51,1.14-1.14l-0.15-53.12
			C279.77,312.68,278.88,311.79,277.79,311.79z"/>
	</g>
	<g>
		<g>
			<path class="st30" d="M126.93,435.24l-25.66,8.86c-4.47,1.54-11.77,1.54-16.24,0l-74.04-25.57c-4-1.38-7.37-6.52-7.37-11.23
				V304.86c0-4.7,3.38-9.84,7.37-11.21l5.71-1.96c1.49-0.51,1.49-2.62,0-3.14l-1.09-0.38c-0.35-0.12-0.73-0.12-1.08,0l-4.6,1.58
				C4.46,291.64,0,298.41,0,304.86v102.44c0,6.45,4.45,13.23,9.93,15.12L83.97,448c2.53,0.87,5.86,1.31,9.18,1.31
				c3.33,0,6.65-0.44,9.18-1.31l26.77-9.25c1.49-0.51,1.49-2.62,0-3.13l-1.09-0.38C127.67,435.12,127.29,435.12,126.93,435.24z"/>
			<path class="st30" d="M55.97,277.82c0.35,0.12,0.73,0.12,1.08,0l27.97-9.62c2.2-0.76,5.16-1.14,8.13-1.14
				c2.96,0,5.92,0.38,8.13,1.14l74.04,25.45c4,1.37,7.37,6.51,7.37,11.21l0,102.44c0,4.71-3.38,9.85-7.37,11.23l-7.25,2.5l5.62,1.95
				c0.35,0.12,0.73,0.12,1.08,0l1.61-0.56c5.48-1.89,9.93-8.67,9.93-15.12l0-102.44c0-6.45-4.46-13.23-9.94-15.11l-74.04-25.45
				c-5.06-1.74-13.3-1.74-18.37,0l-29.09,10c-1.49,0.51-1.49,2.62,0,3.13L55.97,277.82z"/>
		</g>
		<g>
			<path class="st30" d="M148.79,301.81c1.14,0,2.29,0.15,3.15,0.45l11.24,3.91c1.73,0.6,1.73,1.59,0,2.19l-11.24,3.91
				c-0.87,0.3-2.01,0.45-3.15,0.45c-1.14,0-2.28-0.15-3.15-0.45l-11.24-3.91c-1.73-0.6-1.73-1.59,0-2.19l11.24-3.91
				C146.51,301.96,147.65,301.81,148.79,301.81"/>
		</g>
		<g>
			<path class="st30" d="M93.97,282.76c1.14,0,2.29,0.15,3.15,0.45l11.24,3.91c1.73,0.6,1.73,1.59,0,2.19l-11.24,3.91
				c-0.87,0.3-2.01,0.45-3.15,0.45s-2.28-0.15-3.15-0.45l-11.24-3.91c-1.73-0.6-1.73-1.59,0-2.19l11.24-3.91
				C91.69,282.91,92.83,282.76,93.97,282.76"/>
		</g>
		<g>
			<g>
				<path class="st30" d="M39.1,301.84c1.16,0,2.31,0.15,3.19,0.46l11.17,3.89c1.75,0.61,1.75,1.61,0,2.22l-11.17,3.89
					c-1.75,0.61-2.6,2.66-1.88,4.56l17.18,45.36c0.37,0.97,0.87,1.45,1.39,1.45c0.5,0,1.01-0.45,1.41-1.36l14.49-32.59
					c0.82-1.85,2.93-3.86,4.68-4.47l11.17-3.89c0.88-0.31,2.03-0.46,3.19-0.46c1.16,0,2.31,0.15,3.19,0.46l11.17,3.89
					c1.75,0.61,1.75,1.61,0,2.22l-11.17,3.89c-1.75,0.61-3.19,2.8-3.19,4.87v90.29c0,1.7-0.97,2.8-2.28,2.8
					c-0.29,0-0.59-0.05-0.9-0.16l-11.12-3.9c-1.75-0.61-3.19-2.81-3.19-4.87v-50.62c0-1.11-0.19-1.67-0.5-1.67
					c-0.26,0-0.61,0.42-0.99,1.28l-10.01,22.51c-0.66,1.48-2.15,2.43-3.62,2.43c-0.36,0-0.72-0.06-1.07-0.18l-7.43-2.58
					c-1.75-0.61-3.78-2.66-4.5-4.56l-7.9-20.87c-0.34-0.9-0.65-1.34-0.88-1.34c-0.26,0-0.42,0.55-0.42,1.64v41.02
					c0,1.7-0.97,2.81-2.29,2.81c-0.28,0-0.59-0.05-0.9-0.16l-11.17-3.89c-1.75-0.61-3.19-2.8-3.19-4.87v-90.29
					c0-2.07,1.43-4.26,3.19-4.87l11.17-3.89C36.79,301.99,37.95,301.84,39.1,301.84"/>
			</g>
		</g>
		<path class="st29" d="M164.78,401.75l-24.3-51.81c-0.86-1.83-0.63-4.65,0.5-6.28l23.3-33.43c0.16-0.23,0.28-0.46,0.38-0.7
			c-0.26,0.15-0.57,0.29-0.92,0.42l-11.24,3.91c-1.01,0.35-2.32,0.54-3.7,0.54c-1.38,0-2.69-0.19-3.7-0.54l-4.14-1.44l-8.74,12.55
			c-1.13,1.63-2.76,1.46-3.62-0.37l-15.51-33.08c-0.4-0.86-1.09-1.75-1.88-2.52c-0.24,0.64-0.84,1.39-2.28,1.89l-9.29,3.23
			c0.6,1.27,1.2,2.56,1.65,3.52l18.56,39.52c0.86,1.83,0.63,4.65-0.5,6.28l-23.36,33.52c-0.11,0.16-0.25,0.33-0.38,0.5v13.9
			c0.55-0.08,1.07-0.19,1.51-0.35l11.17-3.89c1.75-0.61,4.12-2.44,5.25-4.06l14.59-20.93c1.13-1.63,2.76-1.46,3.62,0.37l15.56,33.13
			c0.86,1.83,0.12,3.82-1.63,4.43l-11.22,3.91c-1.75,0.61-1.75,1.61,0,2.22l11.17,3.89c1.75,0.61,4.62,0.61,6.38,0l11.17-3.89
			C164.9,405.57,165.64,403.58,164.78,401.75z"/>
		<path class="st29" d="M108.32,423.07l-11.24-3.91c-0.44-0.15-0.94-0.27-1.48-0.34v7.7c0,1.24-0.38,2.31-1.03,3.09
			c0.92-0.05,1.81-0.19,2.51-0.43l11.24-3.91C110.05,424.65,110.05,423.67,108.32,423.07z"/>
		<path class="st29" d="M53.5,403.99l-11.24-3.91c-0.44-0.15-0.94-0.27-1.49-0.34v7.7c0,1.24-0.38,2.31-1.03,3.1
			c0.92-0.05,1.81-0.19,2.51-0.43l11.24-3.91C55.23,405.58,55.23,404.6,53.5,403.99z"/>
	</g>
</g>
<g>
	<g>
		<g>
			<path class="st29" d="M251.8,676.63l-4.68-13.47h-0.09c0.12,2,0.19,3.88,0.19,5.63v7.84h-2.39V660.5h3.72l4.48,12.83h0.07
				l4.61-12.83h3.73v16.13h-2.54v-7.98c0-0.8,0.02-1.85,0.06-3.13s0.08-2.07,0.11-2.34h-0.09l-4.84,13.45H251.8z"/>
			<path class="st29" d="M277.06,676.63h-9.12V660.5h9.12v2.23h-6.49v4.39h6.08v2.21h-6.08v5.06h6.49V676.63z"/>
			<path class="st29" d="M288.37,676.63h-2.64v-13.87h-4.74v-2.26h12.12v2.26h-4.74V676.63z"/>
			<path class="st29" d="M307.85,676.63l-1.61-4.48h-6.17l-1.58,4.48h-2.78l6.03-16.19h2.87l6.03,16.19H307.85z M305.55,669.88
				l-1.51-4.39c-0.11-0.29-0.26-0.76-0.46-1.39c-0.2-0.63-0.33-1.1-0.4-1.39c-0.2,0.9-0.49,1.89-0.87,2.97l-1.46,4.2H305.55z"/>
			<path class="st29" d="M332.29,676.63h-9.12V660.5h9.12v2.23h-6.49v4.39h6.08v2.21h-6.08v5.06h6.49V676.63z"/>
			<path class="st29" d="M349.92,676.63h-3.03l-4.04-6.6l-4.07,6.6h-2.82l5.35-8.36l-5.01-7.77h2.93l3.73,6.1l3.73-6.1h2.85
				l-5.04,7.81L349.92,676.63z"/>
			<path class="st29" d="M365.03,665.38c0,1.68-0.55,2.97-1.65,3.87c-1.1,0.9-2.67,1.35-4.71,1.35h-1.68v6.03h-2.64V660.5h4.64
				c2.01,0,3.52,0.41,4.53,1.24C364.52,662.56,365.03,663.78,365.03,665.38z M356.98,668.38h1.4c1.35,0,2.35-0.24,2.98-0.71
				c0.63-0.47,0.95-1.21,0.95-2.21c0-0.93-0.28-1.62-0.85-2.07c-0.57-0.46-1.45-0.68-2.65-0.68h-1.83V668.38z"/>
			<path class="st29" d="M379.63,676.63h-9.12V660.5h9.12v2.23h-6.49v4.39h6.08v2.21h-6.08v5.06h6.49V676.63z"/>
			<path class="st29" d="M388.01,670.19v6.44h-2.64V660.5h4.56c2.08,0,3.62,0.39,4.62,1.17c1,0.78,1.5,1.96,1.5,3.53
				c0,2.01-1.04,3.44-3.13,4.29l4.56,7.14h-3l-3.86-6.44H388.01z M388.01,668.01h1.83c1.23,0,2.12-0.23,2.67-0.68
				c0.55-0.46,0.83-1.13,0.83-2.03c0-0.91-0.3-1.57-0.89-1.96c-0.6-0.4-1.49-0.6-2.69-0.6h-1.74V668.01z"/>
			<path class="st29" d="M402.07,676.63V660.5h2.64v16.13H402.07z"/>
			<path class="st29" d="M418.2,676.63l-4.68-13.47h-0.09c0.12,2,0.19,3.88,0.19,5.63v7.84h-2.39V660.5h3.72l4.48,12.83h0.07
				l4.61-12.83h3.73v16.13h-2.54v-7.98c0-0.8,0.02-1.85,0.06-3.13c0.04-1.29,0.08-2.07,0.11-2.34h-0.09l-4.84,13.45H418.2z"/>
			<path class="st29" d="M443.45,676.63h-9.12V660.5h9.12v2.23h-6.49v4.39h6.08v2.21h-6.08v5.06h6.49V676.63z"/>
			<path class="st29" d="M462.63,676.63h-3.23l-7.93-12.85h-0.09l0.06,0.72c0.1,1.37,0.15,2.62,0.15,3.75v8.38h-2.39V660.5h3.2
				l7.91,12.78h0.07c-0.01-0.17-0.04-0.78-0.09-1.85c-0.04-1.06-0.07-1.89-0.07-2.49v-8.45h2.42V676.63z"/>
			<path class="st29" d="M474.72,676.63h-2.64v-13.87h-4.74v-2.26h12.12v2.26h-4.74V676.63z"/>
			<path class="st29" d="M494.2,676.63l-1.61-4.48h-6.17l-1.58,4.48h-2.78l6.03-16.19h2.87l6.03,16.19H494.2z M491.89,669.88
				l-1.51-4.39c-0.11-0.29-0.26-0.76-0.46-1.39c-0.2-0.63-0.33-1.1-0.4-1.39c-0.2,0.9-0.49,1.89-0.87,2.97l-1.46,4.2H491.89z"/>
			<path class="st29" d="M501.39,676.63V660.5h2.64v13.87h6.83v2.26H501.39z"/>
		</g>
		<path class="st29" d="M520.55,634.55l-13.3-19.13l-13.06,19.12c-0.21,0.31-0.57,0.5-0.94,0.5h-12.17c-0.93,0-1.47-1.06-0.92-1.81
			l19.59-26.92l-17.6-24.6c-0.95-1.32,0-3.16,1.63-3.16h9.93c0.65,0,1.26,0.31,1.63,0.84l10.75,15.16c0.8,1.13,2.48,1.12,3.27-0.01
			l10.53-15.13c0.37-0.54,0.99-0.86,1.64-0.86h9.17c1.63,0,2.58,1.85,1.62,3.17l-17.41,24.11l19.76,27.41
			c0.54,0.76,0,1.81-0.93,1.81h-12.27C521.11,635.04,520.76,634.86,520.55,634.55z"/>
		<g>
			<path class="st31" d="M313.92,611.47h25.09c0.63,0,1.14-0.51,1.14-1.14v-7.03c0-1.1-0.9-2-2-2h-22.23c-1.1,0-2-0.9-2-2v-8.27
				c0-1.1,0.9-2,2-2h25.71c1.1,0,2-0.9,2-2v-6.49c0-1.1-0.9-2-2-2h-38.7c-1.1,0-2,0.9-2,2v53.36c0,0.63,0.51,1.14,1.14,1.14h41.47
				c0.63,0,1.14-0.51,1.14-1.14v-8.21c0-0.63-0.51-1.14-1.14-1.14h-29.61V611.47z"/>
			<path class="st31" d="M404.02,578.54h-45.24c-1.1,0-2,0.9-2,2v6.65c0,1.1,0.9,2,2,2h14.08c1.1,0,2,0.9,2,2v42.71
				c0,0.63,0.51,1.14,1.14,1.14h10.79c0.63,0,1.14-0.51,1.14-1.14v-42.71c0-1.1,0.9-2,2-2h14.08c1.1,0,2-0.9,2-2v-6.65
				C406.02,579.43,405.12,578.54,404.02,578.54z"/>
			<path class="st31" d="M461.28,635.04h11.19c0.83,0,1.38-0.85,1.04-1.61l-24.02-53.71c-0.32-0.72-1.04-1.18-1.83-1.18h-10.32
				c-0.79,0-1.51,0.46-1.83,1.19l-23.94,53.71c-0.34,0.76,0.22,1.61,1.04,1.61h11.64h0.07l3.61-8.71h28.96l3.32,8.01
				C460.4,634.76,460.81,635.04,461.28,635.04z M433.36,613.25l7.22-17.42c0.68-1.65,3.01-1.65,3.7,0l7.21,17.42H433.36z"/>
		</g>
		<path class="st31" d="M277.79,578.79h-7.57c-0.7,0-1.35,0.37-1.71,0.98l-20.15,33.98l-21.05-34.95h-10.77v55.11
			c0,0.63,0.51,1.14,1.14,1.14h9.94c0.63,0,1.14-0.51,1.14-1.14v-28.72c0-0.9,1.18-1.23,1.65-0.46l14.83,24.37h5.87l14.91-25.04
			c0.46-0.77,1.65-0.45,1.65,0.45l0.07,29.4c0,0.63,0.51,1.13,1.14,1.13h9.94c0.63,0,1.14-0.51,1.14-1.14l-0.15-53.12
			C279.77,579.68,278.88,578.79,277.79,578.79z"/>
	</g>
	<g>
		<g>
			<path class="st31" d="M126.82,702.28l-25.54,8.82c-4.47,1.54-11.77,1.54-16.24,0l-74.04-25.57c-4-1.38-7.37-6.52-7.37-11.23
				V571.86c0-4.7,3.38-9.84,7.37-11.21l4.74-1.63c1.81-0.62,1.81-3.18,0-3.81l0,0c-0.43-0.15-0.89-0.15-1.31,0l-4.48,1.54
				C4.46,558.64,0,565.41,0,571.86v102.44c0,6.45,4.45,13.23,9.93,15.12L83.97,715c2.53,0.87,5.86,1.31,9.18,1.31
				c3.33,0,6.65-0.44,9.18-1.31l25.8-8.91c1.81-0.62,1.81-3.18,0-3.81h0C127.71,702.14,127.24,702.14,126.82,702.28z"/>
			<path class="st31" d="M55.86,544.78c0.43,0.15,0.89,0.15,1.31,0l27.86-9.58c2.2-0.76,5.16-1.14,8.13-1.14
				c2.96,0,5.92,0.38,8.13,1.14l74.04,25.45c4,1.37,7.37,6.51,7.37,11.21l0,102.44c0,4.71-3.38,9.85-7.37,11.23l-1.75,0.6
				c-1.81,0.62-1.81,3.18,0,3.81h0c0.43,0.15,0.89,0.15,1.32,0l1.49-0.52c5.48-1.89,9.93-8.67,9.93-15.12l0-102.44
				c0-6.45-4.46-13.23-9.94-15.11l-74.04-25.45c-5.06-1.74-13.3-1.74-18.37,0l-28.11,9.66C54.05,541.59,54.05,544.15,55.86,544.78
				L55.86,544.78z"/>
		</g>
		<g>
			<path class="st31" d="M148.79,568.81c1.14,0,2.29,0.15,3.15,0.45l11.24,3.91c1.73,0.6,1.73,1.59,0,2.19l-11.24,3.91
				c-0.87,0.3-2.01,0.45-3.15,0.45c-1.14,0-2.28-0.15-3.15-0.45l-11.24-3.91c-1.73-0.6-1.73-1.59,0-2.19l11.24-3.91
				C146.51,568.96,147.65,568.81,148.79,568.81"/>
		</g>
		<g>
			<path class="st31" d="M93.97,549.76c1.14,0,2.29,0.15,3.15,0.45l11.24,3.91c1.73,0.6,1.73,1.59,0,2.19l-11.24,3.91
				c-0.87,0.3-2.01,0.45-3.15,0.45s-2.28-0.15-3.15-0.45l-11.24-3.91c-1.73-0.6-1.73-1.59,0-2.19l11.24-3.91
				C91.69,549.91,92.83,549.76,93.97,549.76"/>
		</g>
		<g>
			<g>
				<path class="st31" d="M39.1,568.84c1.16,0,2.31,0.15,3.19,0.46l11.17,3.89c1.75,0.61,1.75,1.61,0,2.22l-11.17,3.89
					c-1.75,0.61-2.6,2.66-1.88,4.56l17.18,45.36c0.37,0.97,0.87,1.45,1.39,1.45c0.5,0,1.01-0.45,1.41-1.36l14.49-32.59
					c0.82-1.85,2.93-3.86,4.68-4.47l11.17-3.89c0.88-0.3,2.03-0.46,3.19-0.46c1.16,0,2.31,0.15,3.19,0.46l11.17,3.89
					c1.75,0.61,1.75,1.61,0,2.22l-11.17,3.89c-1.75,0.61-3.19,2.8-3.19,4.87v90.29c0,1.7-0.97,2.8-2.28,2.8
					c-0.29,0-0.59-0.05-0.9-0.16l-11.12-3.9c-1.75-0.61-3.19-2.81-3.19-4.87v-50.62c0-1.11-0.19-1.67-0.5-1.67
					c-0.26,0-0.61,0.42-0.99,1.28l-10.01,22.51c-0.66,1.48-2.15,2.43-3.62,2.43c-0.36,0-0.72-0.06-1.07-0.18l-7.43-2.58
					c-1.75-0.61-3.78-2.66-4.5-4.56l-7.9-20.87c-0.34-0.9-0.65-1.34-0.88-1.34c-0.26,0-0.42,0.55-0.42,1.64v41.02
					c0,1.7-0.97,2.81-2.29,2.81c-0.28,0-0.59-0.05-0.9-0.16l-11.17-3.89c-1.75-0.61-3.19-2.8-3.19-4.87v-90.29
					c0-2.07,1.43-4.26,3.19-4.87l11.17-3.89C36.79,568.99,37.95,568.84,39.1,568.84"/>
			</g>
		</g>
		<path class="st29" d="M164.78,668.75l-24.3-51.81c-0.86-1.83-0.63-4.65,0.5-6.28l23.3-33.43c0.16-0.23,0.28-0.46,0.38-0.7
			c-0.26,0.15-0.57,0.29-0.92,0.42l-11.24,3.91c-1.01,0.35-2.32,0.54-3.7,0.54c-1.38,0-2.69-0.19-3.7-0.54l-4.14-1.44l-8.74,12.55
			c-1.13,1.63-2.76,1.46-3.62-0.37l-15.51-33.08c-0.4-0.86-1.09-1.75-1.88-2.52c-0.24,0.64-0.84,1.39-2.28,1.89l-9.29,3.23
			c0.6,1.27,1.2,2.56,1.65,3.52l18.56,39.52c0.86,1.83,0.63,4.65-0.5,6.28l-23.36,33.52c-0.11,0.16-0.25,0.33-0.38,0.5v13.9
			c0.55-0.08,1.07-0.19,1.51-0.35l11.17-3.89c1.75-0.61,4.12-2.44,5.25-4.06l14.59-20.93c1.13-1.63,2.76-1.46,3.62,0.37l15.56,33.13
			c0.86,1.83,0.12,3.82-1.63,4.43l-11.22,3.91c-1.75,0.61-1.75,1.61,0,2.22l11.17,3.89c1.75,0.61,4.62,0.61,6.38,0l11.17-3.89
			C164.9,672.57,165.64,670.58,164.78,668.75z"/>
		<path class="st29" d="M108.32,690.07l-11.24-3.91c-0.44-0.15-0.94-0.27-1.48-0.34v7.7c0,1.24-0.38,2.31-1.03,3.09
			c0.92-0.05,1.81-0.19,2.51-0.43l11.24-3.91C110.05,691.66,110.05,690.67,108.32,690.07z"/>
		<path class="st29" d="M53.5,670.99l-11.24-3.91c-0.44-0.15-0.94-0.27-1.49-0.34v7.7c0,1.24-0.38,2.31-1.03,3.1
			c0.92-0.05,1.81-0.19,2.51-0.43l11.24-3.91C55.23,672.58,55.23,671.6,53.5,670.99z"/>
	</g>
</g>
<g>
	<g>
		<g>
			<path class="st29" d="M870.82,172.28l-25.54,8.82c-4.47,1.54-11.77,1.54-16.24,0l-74.04-25.57c-4-1.38-7.37-6.52-7.37-11.23
				V41.86c0-4.7,3.38-9.84,7.37-11.21l4.74-1.63c1.81-0.62,1.81-3.18,0-3.81l0,0c-0.43-0.15-0.89-0.15-1.31,0l-4.48,1.54
				c-5.48,1.88-9.94,8.66-9.94,15.11v102.44c0,6.45,4.45,13.23,9.93,15.12L827.97,185c2.53,0.87,5.86,1.31,9.18,1.31
				c3.33,0,6.65-0.44,9.18-1.31l25.8-8.91c1.81-0.62,1.81-3.18,0-3.81v0C871.71,172.14,871.24,172.14,870.82,172.28z"/>
			<path class="st29" d="M799.86,14.78c0.43,0.15,0.89,0.15,1.31,0l27.86-9.58c2.2-0.76,5.16-1.14,8.13-1.14
				c2.96,0,5.92,0.38,8.13,1.14l74.04,25.45c4,1.37,7.37,6.51,7.37,11.21l0,102.44c0,4.71-3.38,9.85-7.37,11.23l-1.75,0.6
				c-1.81,0.62-1.81,3.18,0,3.81l0,0c0.43,0.15,0.89,0.15,1.32,0l1.49-0.52c5.48-1.89,9.93-8.67,9.93-15.12l0-102.44
				c0-6.45-4.46-13.23-9.94-15.11L846.34,1.31c-5.06-1.74-13.3-1.74-18.37,0l-28.11,9.66C798.05,11.59,798.05,14.15,799.86,14.78
				L799.86,14.78z"/>
		</g>
		<g>
			<path class="st29" d="M892.79,38.81c1.14,0,2.29,0.15,3.15,0.45l11.24,3.91c1.73,0.6,1.73,1.59,0,2.19l-11.24,3.91
				c-0.87,0.3-2.01,0.45-3.15,0.45c-1.14,0-2.28-0.15-3.15-0.45l-11.24-3.91c-1.73-0.6-1.73-1.59,0-2.19l11.24-3.91
				C890.51,38.96,891.65,38.81,892.79,38.81"/>
		</g>
		<g>
			<path class="st29" d="M837.97,19.76c1.14,0,2.28,0.15,3.15,0.45l11.24,3.91c1.73,0.6,1.73,1.59,0,2.19l-11.24,3.91
				c-0.87,0.3-2.01,0.45-3.15,0.45s-2.28-0.15-3.15-0.45l-11.24-3.91c-1.73-0.6-1.73-1.59,0-2.19l11.24-3.91
				C835.69,19.91,836.83,19.76,837.97,19.76"/>
		</g>
		<g>
			<g>
				<path class="st29" d="M783.1,38.84c1.16,0,2.31,0.15,3.19,0.46l11.17,3.89c1.75,0.61,1.75,1.61,0,2.22l-11.17,3.89
					c-1.75,0.61-2.6,2.66-1.88,4.56l17.18,45.36c0.37,0.97,0.87,1.45,1.39,1.45c0.5,0,1.01-0.45,1.41-1.36l14.49-32.59
					c0.82-1.85,2.93-3.86,4.68-4.47l11.17-3.89c0.88-0.31,2.03-0.46,3.19-0.46s2.31,0.15,3.19,0.46l11.17,3.89
					c1.75,0.61,1.75,1.61,0,2.22l-11.17,3.89c-1.75,0.61-3.19,2.8-3.19,4.87v90.29c0,1.7-0.97,2.8-2.28,2.8
					c-0.29,0-0.59-0.05-0.9-0.16l-11.12-3.9c-1.75-0.61-3.19-2.81-3.19-4.87v-50.62c0-1.11-0.19-1.67-0.5-1.67
					c-0.26,0-0.61,0.42-0.99,1.28l-10.01,22.51c-0.66,1.48-2.15,2.43-3.62,2.43c-0.36,0-0.72-0.06-1.07-0.18l-7.43-2.58
					c-1.75-0.61-3.78-2.66-4.5-4.56l-7.9-20.87c-0.34-0.9-0.65-1.34-0.88-1.34c-0.26,0-0.42,0.55-0.42,1.64v41.02
					c0,1.7-0.97,2.81-2.29,2.81c-0.28,0-0.59-0.05-0.9-0.16l-11.17-3.89c-1.75-0.61-3.19-2.8-3.19-4.87V48.05
					c0-2.07,1.43-4.26,3.19-4.87l11.17-3.89C780.79,38.99,781.95,38.84,783.1,38.84"/>
			</g>
		</g>
		<path class="st29" d="M908.78,138.75l-24.3-51.81c-0.86-1.83-0.63-4.65,0.5-6.28l23.3-33.43c0.16-0.23,0.28-0.46,0.38-0.7
			c-0.26,0.15-0.57,0.29-0.92,0.42l-11.24,3.91c-1.01,0.35-2.32,0.54-3.7,0.54c-1.38,0-2.69-0.19-3.7-0.54l-4.14-1.44l-8.74,12.55
			c-1.13,1.63-2.76,1.46-3.62-0.37l-15.51-33.08c-0.4-0.86-1.09-1.75-1.88-2.52c-0.24,0.64-0.84,1.39-2.28,1.89l-9.29,3.23
			c0.6,1.27,1.2,2.56,1.65,3.52l18.56,39.52c0.86,1.83,0.63,4.65-0.5,6.28l-23.36,33.52c-0.11,0.16-0.25,0.33-0.38,0.5v13.9
			c0.55-0.08,1.07-0.19,1.51-0.35l11.17-3.89c1.75-0.61,4.12-2.44,5.25-4.06l14.59-20.93c1.13-1.63,2.76-1.46,3.62,0.37l15.56,33.13
			c0.86,1.83,0.12,3.82-1.63,4.43l-11.22,3.91c-1.75,0.61-1.75,1.61,0,2.22l11.17,3.89c1.75,0.61,4.62,0.61,6.38,0l11.17-3.89
			C908.9,142.57,909.64,140.58,908.78,138.75z"/>
		<path class="st29" d="M852.32,160.07l-11.24-3.91c-0.44-0.15-0.94-0.27-1.48-0.34v7.7c0,1.24-0.38,2.31-1.03,3.09
			c0.92-0.05,1.81-0.19,2.51-0.43l11.24-3.91C854.05,161.66,854.05,160.67,852.32,160.07z"/>
		<path class="st29" d="M797.5,140.99l-11.24-3.91c-0.44-0.15-0.94-0.27-1.49-0.34v7.7c0,1.24-0.38,2.31-1.03,3.1
			c0.92-0.05,1.81-0.19,2.51-0.43l11.24-3.91C799.23,142.58,799.23,141.6,797.5,140.99z"/>
	</g>
	<g>
		<g>
			<path class="st29" d="M995.8,146.63l-4.68-13.47h-0.09c0.12,2,0.19,3.88,0.19,5.63v7.84h-2.39V130.5h3.72l4.48,12.83h0.07
				l4.61-12.83h3.73v16.13h-2.54v-7.98c0-0.8,0.02-1.85,0.06-3.13c0.04-1.29,0.08-2.07,0.11-2.34h-0.09l-4.84,13.45H995.8z"/>
			<path class="st29" d="M1021.06,146.63h-9.12V130.5h9.12v2.23h-6.49v4.39h6.08v2.21h-6.08v5.06h6.49V146.63z"/>
			<path class="st29" d="M1032.37,146.63h-2.64v-13.87h-4.74v-2.26h12.12v2.26h-4.74V146.63z"/>
			<path class="st29" d="M1051.85,146.63l-1.61-4.48h-6.17l-1.58,4.48h-2.78l6.03-16.19h2.87l6.03,16.19H1051.85z M1049.55,139.88
				l-1.51-4.39c-0.11-0.29-0.26-0.76-0.46-1.39c-0.2-0.63-0.33-1.1-0.4-1.39c-0.2,0.9-0.49,1.89-0.87,2.97l-1.46,4.2H1049.55z"/>
			<path class="st29" d="M1076.29,146.63h-9.12V130.5h9.12v2.23h-6.49v4.39h6.08v2.21h-6.08v5.06h6.49V146.63z"/>
			<path class="st29" d="M1093.92,146.63h-3.03l-4.04-6.6l-4.07,6.6h-2.82l5.35-8.36l-5.01-7.77h2.93l3.73,6.1l3.73-6.1h2.85
				l-5.04,7.81L1093.92,146.63z"/>
			<path class="st29" d="M1109.03,135.38c0,1.68-0.55,2.97-1.65,3.87c-1.1,0.9-2.67,1.35-4.71,1.35h-1.68v6.03h-2.64V130.5h4.64
				c2.02,0,3.52,0.41,4.53,1.24C1108.52,132.56,1109.03,133.78,1109.03,135.38z M1100.98,138.38h1.4c1.35,0,2.35-0.24,2.98-0.71
				c0.63-0.47,0.95-1.21,0.95-2.21c0-0.93-0.28-1.62-0.85-2.07c-0.57-0.46-1.45-0.68-2.65-0.68h-1.83V138.38z"/>
			<path class="st29" d="M1123.63,146.63h-9.12V130.5h9.12v2.23h-6.49v4.39h6.08v2.21h-6.08v5.06h6.49V146.63z"/>
			<path class="st29" d="M1132.01,140.19v6.44h-2.64V130.5h4.56c2.08,0,3.62,0.39,4.62,1.17c1,0.78,1.5,1.96,1.5,3.53
				c0,2.01-1.04,3.44-3.13,4.29l4.56,7.14h-3l-3.86-6.44H1132.01z M1132.01,138.01h1.83c1.23,0,2.12-0.23,2.67-0.68
				c0.55-0.46,0.83-1.13,0.83-2.03c0-0.91-0.3-1.57-0.89-1.96c-0.6-0.4-1.49-0.6-2.69-0.6h-1.74V138.01z"/>
			<path class="st29" d="M1146.07,146.63V130.5h2.64v16.13H1146.07z"/>
			<path class="st29" d="M1162.2,146.63l-4.68-13.47h-0.09c0.12,2,0.19,3.88,0.19,5.63v7.84h-2.39V130.5h3.72l4.48,12.83h0.07
				l4.61-12.83h3.73v16.13h-2.54v-7.98c0-0.8,0.02-1.85,0.06-3.13c0.04-1.29,0.08-2.07,0.11-2.34h-0.09l-4.84,13.45H1162.2z"/>
			<path class="st29" d="M1187.45,146.63h-9.12V130.5h9.12v2.23h-6.49v4.39h6.08v2.21h-6.08v5.06h6.49V146.63z"/>
			<path class="st29" d="M1206.63,146.63h-3.23l-7.93-12.85h-0.09l0.06,0.72c0.1,1.37,0.15,2.62,0.15,3.75v8.38h-2.39V130.5h3.2
				l7.91,12.78h0.07c-0.01-0.17-0.04-0.78-0.09-1.85c-0.04-1.06-0.07-1.89-0.07-2.49v-8.45h2.42V146.63z"/>
			<path class="st29" d="M1218.72,146.63h-2.64v-13.87h-4.74v-2.26h12.12v2.26h-4.74V146.63z"/>
			<path class="st29" d="M1238.2,146.63l-1.61-4.48h-6.17l-1.58,4.48h-2.78l6.03-16.19h2.87l6.03,16.19H1238.2z M1235.89,139.88
				l-1.51-4.39c-0.11-0.29-0.26-0.76-0.46-1.39c-0.2-0.63-0.33-1.1-0.4-1.39c-0.2,0.9-0.49,1.89-0.87,2.97l-1.46,4.2H1235.89z"/>
			<path class="st29" d="M1245.39,146.63V130.5h2.64v13.87h6.83v2.26H1245.39z"/>
		</g>
		<path class="st29" d="M1264.55,104.55l-13.3-19.13l-13.06,19.12c-0.21,0.31-0.57,0.5-0.94,0.5h-12.17c-0.93,0-1.47-1.06-0.92-1.81
			l19.59-26.92l-17.6-24.6c-0.95-1.32,0-3.16,1.63-3.16h9.93c0.65,0,1.26,0.31,1.63,0.84l10.75,15.16c0.8,1.13,2.48,1.12,3.27-0.01
			l10.53-15.13c0.37-0.54,0.99-0.86,1.64-0.86h9.17c1.63,0,2.58,1.85,1.62,3.17l-17.41,24.11l19.76,27.41
			c0.54,0.76,0,1.81-0.93,1.81h-12.27C1265.11,105.04,1264.76,104.86,1264.55,104.55z"/>
		<g>
			<path class="st29" d="M1057.92,81.47h25.09c0.63,0,1.14-0.51,1.14-1.14V73.3c0-1.1-0.9-2-2-2h-22.23c-1.1,0-2-0.9-2-2v-8.27
				c0-1.1,0.9-2,2-2h25.71c1.1,0,2-0.9,2-2v-6.49c0-1.1-0.9-2-2-2h-38.7c-1.1,0-2,0.9-2,2v53.36c0,0.63,0.51,1.14,1.14,1.14h41.47
				c0.63,0,1.14-0.51,1.14-1.14v-8.21c0-0.63-0.51-1.14-1.14-1.14h-29.61V81.47z"/>
			<path class="st29" d="M1148.02,48.54h-45.24c-1.1,0-2,0.9-2,2v6.65c0,1.1,0.9,2,2,2h14.08c1.1,0,2,0.9,2,2v42.71
				c0,0.63,0.51,1.14,1.14,1.14h10.79c0.63,0,1.14-0.51,1.14-1.14V61.19c0-1.1,0.9-2,2-2h14.08c1.1,0,2-0.9,2-2v-6.65
				C1150.02,49.43,1149.12,48.54,1148.02,48.54z"/>
			<path class="st29" d="M1205.28,105.04h11.19c0.83,0,1.38-0.85,1.04-1.61l-24.02-53.71c-0.32-0.72-1.04-1.18-1.83-1.18h-10.32
				c-0.79,0-1.51,0.46-1.83,1.19l-23.94,53.71c-0.34,0.76,0.22,1.61,1.04,1.61h11.64h0.07l3.61-8.71h28.96l3.32,8.01
				C1204.4,104.76,1204.81,105.04,1205.28,105.04z M1177.36,83.25l7.22-17.42c0.68-1.65,3.01-1.65,3.7,0l7.21,17.42H1177.36z"/>
		</g>
		<path class="st29" d="M1021.79,48.79h-7.57c-0.7,0-1.35,0.37-1.71,0.98l-20.15,33.98L971.3,48.79h-10.77v55.11
			c0,0.63,0.51,1.14,1.14,1.14h9.94c0.63,0,1.14-0.51,1.14-1.14V75.18c0-0.9,1.18-1.23,1.65-0.46l14.83,24.37h5.87l14.91-25.04
			c0.46-0.77,1.65-0.45,1.65,0.45l0.07,29.4c0,0.63,0.51,1.13,1.14,1.13h9.94c0.63,0,1.14-0.51,1.14-1.14l-0.15-53.12
			C1023.77,49.68,1022.88,48.79,1021.79,48.79z"/>
	</g>
</g>
<g>
	<g>
		<g>
			<path class="st32" d="M1807.8,409.63l-4.68-13.47h-0.09c0.12,2,0.19,3.88,0.19,5.63v7.84h-2.39V393.5h3.72l4.48,12.83h0.07
				l4.61-12.83h3.73v16.13h-2.54v-7.98c0-0.8,0.02-1.85,0.06-3.13s0.08-2.07,0.11-2.34h-0.09l-4.84,13.45H1807.8z"/>
			<path class="st32" d="M1833.06,409.63h-9.12V393.5h9.12v2.23h-6.49v4.39h6.08v2.21h-6.08v5.06h6.49V409.63z"/>
			<path class="st32" d="M1844.37,409.63h-2.64v-13.87h-4.74v-2.26h12.12v2.26h-4.74V409.63z"/>
			<path class="st32" d="M1863.85,409.63l-1.61-4.48h-6.17l-1.58,4.48h-2.78l6.03-16.19h2.87l6.03,16.19H1863.85z M1861.55,402.88
				l-1.51-4.39c-0.11-0.29-0.26-0.76-0.46-1.39c-0.2-0.63-0.33-1.1-0.4-1.39c-0.2,0.9-0.49,1.89-0.87,2.97l-1.46,4.2H1861.55z"/>
			<path class="st32" d="M1888.29,409.63h-9.12V393.5h9.12v2.23h-6.49v4.39h6.08v2.21h-6.08v5.06h6.49V409.63z"/>
			<path class="st32" d="M1905.92,409.63h-3.03l-4.04-6.6l-4.07,6.6h-2.82l5.35-8.36l-5.01-7.77h2.93l3.73,6.1l3.73-6.1h2.85
				l-5.04,7.81L1905.92,409.63z"/>
			<path class="st32" d="M1921.03,398.38c0,1.68-0.55,2.97-1.65,3.87c-1.1,0.9-2.67,1.35-4.71,1.35h-1.68v6.03h-2.64V393.5h4.64
				c2.02,0,3.52,0.41,4.53,1.24C1920.52,395.56,1921.03,396.78,1921.03,398.38z M1912.98,401.38h1.4c1.35,0,2.35-0.24,2.98-0.71
				c0.63-0.47,0.95-1.21,0.95-2.21c0-0.93-0.28-1.62-0.85-2.07c-0.57-0.46-1.45-0.68-2.65-0.68h-1.83V401.38z"/>
			<path class="st32" d="M1935.63,409.63h-9.12V393.5h9.12v2.23h-6.49v4.39h6.08v2.21h-6.08v5.06h6.49V409.63z"/>
			<path class="st32" d="M1944.01,403.19v6.44h-2.64V393.5h4.56c2.08,0,3.62,0.39,4.62,1.17c1,0.78,1.5,1.96,1.5,3.53
				c0,2.01-1.04,3.44-3.13,4.29l4.56,7.14h-3l-3.86-6.44H1944.01z M1944.01,401.01h1.83c1.23,0,2.12-0.23,2.67-0.68
				c0.55-0.46,0.83-1.13,0.83-2.03c0-0.91-0.3-1.57-0.89-1.96c-0.6-0.4-1.49-0.6-2.69-0.6h-1.74V401.01z"/>
			<path class="st32" d="M1958.07,409.63V393.5h2.64v16.13H1958.07z"/>
			<path class="st32" d="M1974.2,409.63l-4.68-13.47h-0.09c0.12,2,0.19,3.88,0.19,5.63v7.84h-2.39V393.5h3.72l4.48,12.83h0.07
				l4.61-12.83h3.73v16.13h-2.54v-7.98c0-0.8,0.02-1.85,0.06-3.13s0.08-2.07,0.11-2.34h-0.09l-4.84,13.45H1974.2z"/>
			<path class="st32" d="M1999.45,409.63h-9.12V393.5h9.12v2.23h-6.49v4.39h6.08v2.21h-6.08v5.06h6.49V409.63z"/>
			<path class="st32" d="M2018.63,409.63h-3.23l-7.93-12.85h-0.09l0.06,0.72c0.1,1.37,0.15,2.62,0.15,3.75v8.38h-2.39V393.5h3.2
				l7.91,12.78h0.07c-0.01-0.17-0.04-0.78-0.09-1.85c-0.04-1.06-0.07-1.89-0.07-2.49v-8.45h2.42V409.63z"/>
			<path class="st32" d="M2030.72,409.63h-2.64v-13.87h-4.74v-2.26h12.12v2.26h-4.74V409.63z"/>
			<path class="st32" d="M2050.2,409.63l-1.61-4.48h-6.17l-1.58,4.48h-2.78l6.03-16.19h2.87l6.03,16.19H2050.2z M2047.89,402.88
				l-1.51-4.39c-0.11-0.29-0.26-0.76-0.46-1.39c-0.2-0.63-0.33-1.1-0.4-1.39c-0.2,0.9-0.49,1.89-0.87,2.97l-1.46,4.2H2047.89z"/>
			<path class="st32" d="M2057.39,409.63V393.5h2.64v13.87h6.83v2.26H2057.39z"/>
		</g>
		<path class="st32" d="M2076.55,367.55l-13.3-19.13l-13.06,19.12c-0.21,0.31-0.57,0.5-0.94,0.5h-12.17c-0.93,0-1.47-1.06-0.92-1.81
			l19.59-26.92l-17.6-24.6c-0.95-1.32,0-3.16,1.63-3.16h9.93c0.65,0,1.26,0.31,1.63,0.84l10.75,15.16c0.8,1.13,2.48,1.12,3.27-0.01
			l10.53-15.13c0.37-0.54,0.99-0.86,1.64-0.86h9.17c1.63,0,2.58,1.85,1.62,3.17l-17.41,24.11l19.76,27.41
			c0.54,0.76,0,1.81-0.93,1.81h-12.27C2077.11,368.04,2076.76,367.86,2076.55,367.55z"/>
		<g>
			<path class="st32" d="M1869.92,344.47h25.09c0.63,0,1.14-0.51,1.14-1.14v-7.03c0-1.1-0.9-2-2-2h-22.23c-1.1,0-2-0.9-2-2v-8.27
				c0-1.1,0.9-2,2-2h25.71c1.1,0,2-0.9,2-2v-6.49c0-1.1-0.9-2-2-2h-38.7c-1.1,0-2,0.9-2,2v53.36c0,0.63,0.51,1.14,1.14,1.14h41.47
				c0.63,0,1.14-0.51,1.14-1.14v-8.21c0-0.63-0.51-1.14-1.14-1.14h-29.61V344.47z"/>
			<path class="st32" d="M1960.02,311.54h-45.24c-1.1,0-2,0.9-2,2v6.65c0,1.1,0.9,2,2,2h14.08c1.1,0,2,0.9,2,2v42.71
				c0,0.63,0.51,1.14,1.14,1.14h10.79c0.63,0,1.14-0.51,1.14-1.14v-42.71c0-1.1,0.9-2,2-2h14.08c1.1,0,2-0.9,2-2v-6.65
				C1962.02,312.43,1961.12,311.54,1960.02,311.54z"/>
			<path class="st32" d="M2017.28,368.04h11.19c0.83,0,1.38-0.85,1.04-1.61l-24.02-53.71c-0.32-0.72-1.04-1.18-1.83-1.18h-10.32
				c-0.79,0-1.51,0.46-1.83,1.19l-23.94,53.71c-0.34,0.76,0.22,1.61,1.04,1.61h11.64h0.07l3.61-8.71h28.96l3.32,8.01
				C2016.4,367.76,2016.81,368.04,2017.28,368.04z M1989.36,346.25l7.22-17.42c0.68-1.65,3.01-1.65,3.7,0l7.21,17.42H1989.36z"/>
		</g>
		<path class="st32" d="M1833.79,311.79h-7.57c-0.7,0-1.35,0.37-1.71,0.98l-20.15,33.98l-21.05-34.95h-10.77v55.11
			c0,0.63,0.51,1.14,1.14,1.14h9.94c0.63,0,1.14-0.51,1.14-1.14v-28.72c0-0.9,1.18-1.23,1.65-0.46l14.83,24.37h5.87l14.91-25.04
			c0.46-0.77,1.65-0.45,1.65,0.45l0.07,29.4c0,0.63,0.51,1.13,1.14,1.13h9.94c0.63,0,1.14-0.51,1.14-1.14l-0.15-53.12
			C1835.77,312.68,1834.88,311.79,1833.79,311.79z"/>
	</g>
	<g>
		<path class="st32" d="M1682.82,435.28l-25.54,8.82c-4.47,1.54-11.77,1.54-16.24,0l-74.04-25.57c-4-1.38-7.37-6.52-7.37-11.23
			V304.86c0-4.7,3.38-9.84,7.37-11.21l4.74-1.63c1.81-0.62,1.81-3.18,0-3.81l0,0c-0.43-0.15-0.89-0.15-1.31,0l-4.48,1.54
			c-5.48,1.88-9.94,8.66-9.94,15.11v102.44c0,6.45,4.45,13.23,9.93,15.12l74.04,25.57c2.53,0.87,5.86,1.31,9.18,1.31
			s6.65-0.44,9.18-1.31l25.8-8.91c1.81-0.62,1.81-3.18,0-3.81v0C1683.71,435.14,1683.24,435.14,1682.82,435.28z"/>
		<path class="st32" d="M1611.86,277.78c0.43,0.15,0.89,0.15,1.31,0l27.86-9.58c2.2-0.76,5.16-1.14,8.13-1.14
			c2.96,0,5.92,0.38,8.13,1.14l74.04,25.45c4,1.37,7.37,6.51,7.37,11.21l0,102.44c0,4.71-3.38,9.85-7.37,11.23l-1.75,0.6
			c-1.81,0.62-1.81,3.18,0,3.81l0,0c0.43,0.15,0.89,0.15,1.32,0l1.49-0.52c5.48-1.89,9.93-8.67,9.93-15.12l0-102.44
			c0-6.45-4.46-13.23-9.94-15.11l-74.04-25.45c-5.06-1.74-13.3-1.74-18.37,0l-28.11,9.66
			C1610.05,274.59,1610.05,277.15,1611.86,277.78L1611.86,277.78z"/>
	</g>
	<g>
		<path class="st32" d="M1704.79,301.81c1.14,0,2.29,0.15,3.15,0.45l11.24,3.91c1.73,0.6,1.73,1.59,0,2.19l-11.24,3.91
			c-0.87,0.3-2.01,0.45-3.15,0.45c-1.14,0-2.29-0.15-3.15-0.45l-11.24-3.91c-1.73-0.6-1.73-1.59,0-2.19l11.24-3.91
			C1702.51,301.96,1703.65,301.81,1704.79,301.81"/>
	</g>
	<g>
		<path class="st32" d="M1649.97,282.76c1.14,0,2.29,0.15,3.15,0.45l11.24,3.91c1.73,0.6,1.73,1.59,0,2.19l-11.24,3.91
			c-0.87,0.3-2.01,0.45-3.15,0.45s-2.28-0.15-3.15-0.45l-11.24-3.91c-1.73-0.6-1.73-1.59,0-2.19l11.24-3.91
			C1647.69,282.91,1648.83,282.76,1649.97,282.76"/>
	</g>
	<g>
		<g>
			<path class="st32" d="M1595.1,301.84c1.16,0,2.31,0.15,3.19,0.46l11.17,3.89c1.75,0.61,1.75,1.61,0,2.22l-11.17,3.89
				c-1.75,0.61-2.6,2.66-1.88,4.56l17.18,45.36c0.37,0.97,0.87,1.45,1.39,1.45c0.5,0,1.01-0.45,1.41-1.36l14.49-32.59
				c0.82-1.85,2.93-3.86,4.68-4.47l11.17-3.89c0.88-0.31,2.03-0.46,3.19-0.46c1.16,0,2.31,0.15,3.19,0.46l11.17,3.89
				c1.75,0.61,1.75,1.61,0,2.22l-11.17,3.89c-1.75,0.61-3.19,2.8-3.19,4.87v90.29c0,1.7-0.97,2.8-2.28,2.8
				c-0.29,0-0.59-0.05-0.9-0.16l-11.12-3.9c-1.75-0.61-3.19-2.81-3.19-4.87v-50.62c0-1.11-0.19-1.67-0.5-1.67
				c-0.26,0-0.61,0.42-0.99,1.28l-10.01,22.51c-0.66,1.48-2.15,2.43-3.62,2.43c-0.36,0-0.72-0.06-1.07-0.18l-7.43-2.58
				c-1.75-0.61-3.78-2.66-4.5-4.56l-7.9-20.87c-0.34-0.9-0.65-1.34-0.88-1.34c-0.26,0-0.42,0.55-0.42,1.64v41.02
				c0,1.7-0.97,2.81-2.29,2.81c-0.28,0-0.59-0.05-0.9-0.16l-11.17-3.89c-1.75-0.61-3.19-2.8-3.19-4.87v-90.29
				c0-2.07,1.43-4.26,3.19-4.87l11.17-3.89C1592.79,301.99,1593.95,301.84,1595.1,301.84"/>
		</g>
	</g>
	<path class="st32" d="M1720.78,401.75l-24.3-51.81c-0.86-1.83-0.63-4.65,0.5-6.28l23.3-33.43c0.16-0.23,0.28-0.46,0.38-0.7
		c-0.26,0.15-0.57,0.29-0.92,0.42l-11.24,3.91c-1.01,0.35-2.32,0.54-3.7,0.54c-1.38,0-2.69-0.19-3.7-0.54l-4.14-1.44l-8.74,12.55
		c-1.13,1.63-2.76,1.46-3.62-0.37l-15.51-33.08c-0.4-0.86-1.09-1.75-1.88-2.52c-0.24,0.64-0.84,1.39-2.28,1.89l-9.29,3.23
		c0.6,1.27,1.2,2.56,1.65,3.52l18.56,39.52c0.86,1.83,0.63,4.65-0.5,6.28l-23.36,33.52c-0.11,0.16-0.25,0.33-0.38,0.5v13.9
		c0.55-0.08,1.07-0.19,1.51-0.35l11.17-3.89c1.75-0.61,4.11-2.44,5.25-4.06l14.59-20.93c1.13-1.63,2.76-1.46,3.62,0.37l15.56,33.13
		c0.86,1.83,0.12,3.82-1.63,4.43l-11.22,3.91c-1.75,0.61-1.75,1.61,0,2.22l11.17,3.89c1.75,0.61,4.62,0.61,6.38,0l11.17-3.89
		C1720.9,405.57,1721.64,403.58,1720.78,401.75z"/>
	<path class="st32" d="M1664.32,423.07l-11.24-3.91c-0.44-0.15-0.94-0.27-1.48-0.34v7.7c0,1.24-0.38,2.31-1.03,3.09
		c0.92-0.05,1.81-0.19,2.51-0.43l11.24-3.91C1666.05,424.65,1666.05,423.67,1664.32,423.07z"/>
	<path class="st32" d="M1609.5,403.99l-11.24-3.91c-0.44-0.15-0.94-0.27-1.49-0.34v7.7c0,1.24-0.38,2.31-1.03,3.1
		c0.92-0.05,1.81-0.19,2.51-0.43l11.24-3.91C1611.23,405.58,1611.23,404.6,1609.5,403.99z"/>
</g>
<g>
	<g>
		<g>
			<path d="M995.8,409.63l-4.68-13.47h-0.09c0.12,2,0.19,3.88,0.19,5.63v7.84h-2.39V393.5h3.72l4.48,12.83h0.07l4.61-12.83h3.73
				v16.13h-2.54v-7.98c0-0.8,0.02-1.85,0.06-3.13s0.08-2.07,0.11-2.34h-0.09l-4.84,13.45H995.8z"/>
			<path d="M1021.06,409.63h-9.12V393.5h9.12v2.23h-6.49v4.39h6.08v2.21h-6.08v5.06h6.49V409.63z"/>
			<path d="M1032.37,409.63h-2.64v-13.87h-4.74v-2.26h12.12v2.26h-4.74V409.63z"/>
			<path d="M1051.85,409.63l-1.61-4.48h-6.17l-1.58,4.48h-2.78l6.03-16.19h2.87l6.03,16.19H1051.85z M1049.55,402.88l-1.51-4.39
				c-0.11-0.29-0.26-0.76-0.46-1.39c-0.2-0.63-0.33-1.1-0.4-1.39c-0.2,0.9-0.49,1.89-0.87,2.97l-1.46,4.2H1049.55z"/>
			<path d="M1076.29,409.63h-9.12V393.5h9.12v2.23h-6.49v4.39h6.08v2.21h-6.08v5.06h6.49V409.63z"/>
			<path d="M1093.92,409.63h-3.03l-4.04-6.6l-4.07,6.6h-2.82l5.35-8.36l-5.01-7.77h2.93l3.73,6.1l3.73-6.1h2.85l-5.04,7.81
				L1093.92,409.63z"/>
			<path d="M1109.03,398.38c0,1.68-0.55,2.97-1.65,3.87c-1.1,0.9-2.67,1.35-4.71,1.35h-1.68v6.03h-2.64V393.5h4.64
				c2.02,0,3.52,0.41,4.53,1.24C1108.52,395.56,1109.03,396.78,1109.03,398.38z M1100.98,401.38h1.4c1.35,0,2.35-0.24,2.98-0.71
				c0.63-0.47,0.95-1.21,0.95-2.21c0-0.93-0.28-1.62-0.85-2.07c-0.57-0.46-1.45-0.68-2.65-0.68h-1.83V401.38z"/>
			<path d="M1123.63,409.63h-9.12V393.5h9.12v2.23h-6.49v4.39h6.08v2.21h-6.08v5.06h6.49V409.63z"/>
			<path d="M1132.01,403.19v6.44h-2.64V393.5h4.56c2.08,0,3.62,0.39,4.62,1.17c1,0.78,1.5,1.96,1.5,3.53c0,2.01-1.04,3.44-3.13,4.29
				l4.56,7.14h-3l-3.86-6.44H1132.01z M1132.01,401.01h1.83c1.23,0,2.12-0.23,2.67-0.68c0.55-0.46,0.83-1.13,0.83-2.03
				c0-0.91-0.3-1.57-0.89-1.96c-0.6-0.4-1.49-0.6-2.69-0.6h-1.74V401.01z"/>
			<path d="M1146.07,409.63V393.5h2.64v16.13H1146.07z"/>
			<path d="M1162.2,409.63l-4.68-13.47h-0.09c0.12,2,0.19,3.88,0.19,5.63v7.84h-2.39V393.5h3.72l4.48,12.83h0.07l4.61-12.83h3.73
				v16.13h-2.54v-7.98c0-0.8,0.02-1.85,0.06-3.13s0.08-2.07,0.11-2.34h-0.09l-4.84,13.45H1162.2z"/>
			<path d="M1187.45,409.63h-9.12V393.5h9.12v2.23h-6.49v4.39h6.08v2.21h-6.08v5.06h6.49V409.63z"/>
			<path d="M1206.63,409.63h-3.23l-7.93-12.85h-0.09l0.06,0.72c0.1,1.37,0.15,2.62,0.15,3.75v8.38h-2.39V393.5h3.2l7.91,12.78h0.07
				c-0.01-0.17-0.04-0.78-0.09-1.85c-0.04-1.06-0.07-1.89-0.07-2.49v-8.45h2.42V409.63z"/>
			<path d="M1218.72,409.63h-2.64v-13.87h-4.74v-2.26h12.12v2.26h-4.74V409.63z"/>
			<path d="M1238.2,409.63l-1.61-4.48h-6.17l-1.58,4.48h-2.78l6.03-16.19h2.87l6.03,16.19H1238.2z M1235.89,402.88l-1.51-4.39
				c-0.11-0.29-0.26-0.76-0.46-1.39c-0.2-0.63-0.33-1.1-0.4-1.39c-0.2,0.9-0.49,1.89-0.87,2.97l-1.46,4.2H1235.89z"/>
			<path d="M1245.39,409.63V393.5h2.64v13.87h6.83v2.26H1245.39z"/>
		</g>
		<path d="M1264.55,367.55l-13.3-19.13l-13.06,19.12c-0.21,0.31-0.57,0.5-0.94,0.5h-12.17c-0.93,0-1.47-1.06-0.92-1.81l19.59-26.92
			l-17.6-24.6c-0.95-1.32,0-3.16,1.63-3.16h9.93c0.65,0,1.26,0.31,1.63,0.84l10.75,15.16c0.8,1.13,2.48,1.12,3.27-0.01l10.53-15.13
			c0.37-0.54,0.99-0.86,1.64-0.86h9.17c1.63,0,2.58,1.85,1.62,3.17l-17.41,24.11l19.76,27.41c0.54,0.76,0,1.81-0.93,1.81h-12.27
			C1265.11,368.04,1264.76,367.86,1264.55,367.55z"/>
		<g>
			<path d="M1057.92,344.47h25.09c0.63,0,1.14-0.51,1.14-1.14v-7.03c0-1.1-0.9-2-2-2h-22.23c-1.1,0-2-0.9-2-2v-8.27c0-1.1,0.9-2,2-2
				h25.71c1.1,0,2-0.9,2-2v-6.49c0-1.1-0.9-2-2-2h-38.7c-1.1,0-2,0.9-2,2v53.36c0,0.63,0.51,1.14,1.14,1.14h41.47
				c0.63,0,1.14-0.51,1.14-1.14v-8.21c0-0.63-0.51-1.14-1.14-1.14h-29.61V344.47z"/>
			<path d="M1148.02,311.54h-45.24c-1.1,0-2,0.9-2,2v6.65c0,1.1,0.9,2,2,2h14.08c1.1,0,2,0.9,2,2v42.71c0,0.63,0.51,1.14,1.14,1.14
				h10.79c0.63,0,1.14-0.51,1.14-1.14v-42.71c0-1.1,0.9-2,2-2h14.08c1.1,0,2-0.9,2-2v-6.65
				C1150.02,312.43,1149.12,311.54,1148.02,311.54z"/>
			<path d="M1205.28,368.04h11.19c0.83,0,1.38-0.85,1.04-1.61l-24.02-53.71c-0.32-0.72-1.04-1.18-1.83-1.18h-10.32
				c-0.79,0-1.51,0.46-1.83,1.19l-23.94,53.71c-0.34,0.76,0.22,1.61,1.04,1.61h11.64h0.07l3.61-8.71h28.96l3.32,8.01
				C1204.4,367.76,1204.81,368.04,1205.28,368.04z M1177.36,346.25l7.22-17.42c0.68-1.65,3.01-1.65,3.7,0l7.21,17.42H1177.36z"/>
		</g>
		<path d="M1021.79,311.79h-7.57c-0.7,0-1.35,0.37-1.71,0.98l-20.15,33.98l-21.05-34.95h-10.77v55.11c0,0.63,0.51,1.14,1.14,1.14
			h9.94c0.63,0,1.14-0.51,1.14-1.14v-28.72c0-0.9,1.18-1.23,1.65-0.46l14.83,24.37h5.87l14.91-25.04c0.46-0.77,1.65-0.45,1.65,0.45
			l0.07,29.4c0,0.63,0.51,1.13,1.14,1.13h9.94c0.63,0,1.14-0.51,1.14-1.14l-0.15-53.12
			C1023.77,312.68,1022.88,311.79,1021.79,311.79z"/>
	</g>
	<g>
		<path d="M870.82,435.28l-25.54,8.82c-4.47,1.54-11.77,1.54-16.24,0l-74.04-25.57c-4-1.38-7.37-6.52-7.37-11.23V304.86
			c0-4.7,3.38-9.84,7.37-11.21l4.74-1.63c1.81-0.62,1.81-3.18,0-3.81l0,0c-0.43-0.15-0.89-0.15-1.31,0l-4.48,1.54
			c-5.48,1.88-9.94,8.66-9.94,15.11v102.44c0,6.45,4.45,13.23,9.93,15.12L827.97,448c2.53,0.87,5.86,1.31,9.18,1.31
			c3.33,0,6.65-0.44,9.18-1.31l25.8-8.91c1.81-0.62,1.81-3.18,0-3.81v0C871.71,435.14,871.24,435.14,870.82,435.28z"/>
		<path d="M799.86,277.78c0.43,0.15,0.89,0.15,1.31,0l27.86-9.58c2.2-0.76,5.16-1.14,8.13-1.14c2.96,0,5.92,0.38,8.13,1.14
			l74.04,25.45c4,1.37,7.37,6.51,7.37,11.21l0,102.44c0,4.71-3.38,9.85-7.37,11.23l-1.75,0.6c-1.81,0.62-1.81,3.18,0,3.81l0,0
			c0.43,0.15,0.89,0.15,1.32,0l1.49-0.52c5.48-1.89,9.93-8.67,9.93-15.12l0-102.44c0-6.45-4.46-13.23-9.94-15.11l-74.04-25.45
			c-5.06-1.74-13.3-1.74-18.37,0l-28.11,9.66C798.05,274.59,798.05,277.15,799.86,277.78L799.86,277.78z"/>
	</g>
	<g>
		<path d="M892.79,301.81c1.14,0,2.29,0.15,3.15,0.45l11.24,3.91c1.73,0.6,1.73,1.59,0,2.19l-11.24,3.91
			c-0.87,0.3-2.01,0.45-3.15,0.45c-1.14,0-2.28-0.15-3.15-0.45l-11.24-3.91c-1.73-0.6-1.73-1.59,0-2.19l11.24-3.91
			C890.51,301.96,891.65,301.81,892.79,301.81"/>
	</g>
	<g>
		<path d="M837.97,282.76c1.14,0,2.28,0.15,3.15,0.45l11.24,3.91c1.73,0.6,1.73,1.59,0,2.19l-11.24,3.91
			c-0.87,0.3-2.01,0.45-3.15,0.45s-2.28-0.15-3.15-0.45l-11.24-3.91c-1.73-0.6-1.73-1.59,0-2.19l11.24-3.91
			C835.69,282.91,836.83,282.76,837.97,282.76"/>
	</g>
	<g>
		<g>
			<path d="M783.1,301.84c1.16,0,2.31,0.15,3.19,0.46l11.17,3.89c1.75,0.61,1.75,1.61,0,2.22l-11.17,3.89
				c-1.75,0.61-2.6,2.66-1.88,4.56l17.18,45.36c0.37,0.97,0.87,1.45,1.39,1.45c0.5,0,1.01-0.45,1.41-1.36l14.49-32.59
				c0.82-1.85,2.93-3.86,4.68-4.47l11.17-3.89c0.88-0.31,2.03-0.46,3.19-0.46s2.31,0.15,3.19,0.46l11.17,3.89
				c1.75,0.61,1.75,1.61,0,2.22l-11.17,3.89c-1.75,0.61-3.19,2.8-3.19,4.87v90.29c0,1.7-0.97,2.8-2.28,2.8
				c-0.29,0-0.59-0.05-0.9-0.16l-11.12-3.9c-1.75-0.61-3.19-2.81-3.19-4.87v-50.62c0-1.11-0.19-1.67-0.5-1.67
				c-0.26,0-0.61,0.42-0.99,1.28l-10.01,22.51c-0.66,1.48-2.15,2.43-3.62,2.43c-0.36,0-0.72-0.06-1.07-0.18l-7.43-2.58
				c-1.75-0.61-3.78-2.66-4.5-4.56l-7.9-20.87c-0.34-0.9-0.65-1.34-0.88-1.34c-0.26,0-0.42,0.55-0.42,1.64v41.02
				c0,1.7-0.97,2.81-2.29,2.81c-0.28,0-0.59-0.05-0.9-0.16l-11.17-3.89c-1.75-0.61-3.19-2.8-3.19-4.87v-90.29
				c0-2.07,1.43-4.26,3.19-4.87l11.17-3.89C780.79,301.99,781.95,301.84,783.1,301.84"/>
		</g>
	</g>
	<path d="M908.78,401.75l-24.3-51.81c-0.86-1.83-0.63-4.65,0.5-6.28l23.3-33.43c0.16-0.23,0.28-0.46,0.38-0.7
		c-0.26,0.15-0.57,0.29-0.92,0.42l-11.24,3.91c-1.01,0.35-2.32,0.54-3.7,0.54c-1.38,0-2.69-0.19-3.7-0.54l-4.14-1.44l-8.74,12.55
		c-1.13,1.63-2.76,1.46-3.62-0.37l-15.51-33.08c-0.4-0.86-1.09-1.75-1.88-2.52c-0.24,0.64-0.84,1.39-2.28,1.89l-9.29,3.23
		c0.6,1.27,1.2,2.56,1.65,3.52l18.56,39.52c0.86,1.83,0.63,4.65-0.5,6.28l-23.36,33.52c-0.11,0.16-0.25,0.33-0.38,0.5v13.9
		c0.55-0.08,1.07-0.19,1.51-0.35l11.17-3.89c1.75-0.61,4.12-2.44,5.25-4.06l14.59-20.93c1.13-1.63,2.76-1.46,3.62,0.37l15.56,33.13
		c0.86,1.83,0.12,3.82-1.63,4.43l-11.22,3.91c-1.75,0.61-1.75,1.61,0,2.22l11.17,3.89c1.75,0.61,4.62,0.61,6.38,0l11.17-3.89
		C908.9,405.57,909.64,403.58,908.78,401.75z"/>
	<path d="M852.32,423.07l-11.24-3.91c-0.44-0.15-0.94-0.27-1.48-0.34v7.7c0,1.24-0.38,2.31-1.03,3.09c0.92-0.05,1.81-0.19,2.51-0.43
		l11.24-3.91C854.05,424.65,854.05,423.67,852.32,423.07z"/>
	<path d="M797.5,403.99l-11.24-3.91c-0.44-0.15-0.94-0.27-1.49-0.34v7.7c0,1.24-0.38,2.31-1.03,3.1c0.92-0.05,1.81-0.19,2.51-0.43
		l11.24-3.91C799.23,405.58,799.23,404.6,797.5,403.99z"/>
</g>
<g>
	<g>
		<g>
			<path class="st33" d="M870.82,702.28l-25.54,8.82c-4.47,1.54-11.77,1.54-16.24,0l-74.04-25.57c-4-1.38-7.37-6.52-7.37-11.23
				V571.86c0-4.7,3.38-9.84,7.37-11.21l4.74-1.63c1.81-0.62,1.81-3.18,0-3.81l0,0c-0.43-0.15-0.89-0.15-1.31,0l-4.48,1.54
				c-5.48,1.88-9.94,8.66-9.94,15.11v102.44c0,6.45,4.45,13.23,9.93,15.12L827.97,715c2.53,0.87,5.86,1.31,9.18,1.31
				c3.33,0,6.65-0.44,9.18-1.31l25.8-8.91c1.81-0.62,1.81-3.18,0-3.81l0,0C871.71,702.14,871.24,702.14,870.82,702.28z"/>
			<path class="st33" d="M799.86,544.78c0.43,0.15,0.89,0.15,1.31,0l27.86-9.58c2.2-0.76,5.16-1.14,8.13-1.14
				c2.96,0,5.92,0.38,8.13,1.14l74.04,25.45c4,1.37,7.37,6.51,7.37,11.21l0,102.44c0,4.71-3.38,9.85-7.37,11.23l-1.75,0.6
				c-1.81,0.62-1.81,3.18,0,3.81l0,0c0.43,0.15,0.89,0.15,1.32,0l1.49-0.52c5.48-1.89,9.93-8.67,9.93-15.12l0-102.44
				c0-6.45-4.46-13.23-9.94-15.11l-74.04-25.45c-5.06-1.74-13.3-1.74-18.37,0l-28.11,9.66
				C798.05,541.59,798.05,544.15,799.86,544.78L799.86,544.78z"/>
		</g>
		<g>
			<path class="st33" d="M892.79,568.81c1.14,0,2.29,0.15,3.15,0.45l11.24,3.91c1.73,0.6,1.73,1.59,0,2.19l-11.24,3.91
				c-0.87,0.3-2.01,0.45-3.15,0.45c-1.14,0-2.28-0.15-3.15-0.45l-11.24-3.91c-1.73-0.6-1.73-1.59,0-2.19l11.24-3.91
				C890.51,568.96,891.65,568.81,892.79,568.81"/>
		</g>
		<g>
			<path class="st33" d="M837.97,549.76c1.14,0,2.28,0.15,3.15,0.45l11.24,3.91c1.73,0.6,1.73,1.59,0,2.19l-11.24,3.91
				c-0.87,0.3-2.01,0.45-3.15,0.45s-2.28-0.15-3.15-0.45l-11.24-3.91c-1.73-0.6-1.73-1.59,0-2.19l11.24-3.91
				C835.69,549.91,836.83,549.76,837.97,549.76"/>
		</g>
		<g>
			<g>
				<path class="st33" d="M783.1,568.84c1.16,0,2.31,0.15,3.19,0.46l11.17,3.89c1.75,0.61,1.75,1.61,0,2.22l-11.17,3.89
					c-1.75,0.61-2.6,2.66-1.88,4.56l17.18,45.36c0.37,0.97,0.87,1.45,1.39,1.45c0.5,0,1.01-0.45,1.41-1.36l14.49-32.59
					c0.82-1.85,2.93-3.86,4.68-4.47l11.17-3.89c0.88-0.3,2.03-0.46,3.19-0.46s2.31,0.15,3.19,0.46l11.17,3.89
					c1.75,0.61,1.75,1.61,0,2.22l-11.17,3.89c-1.75,0.61-3.19,2.8-3.19,4.87v90.29c0,1.7-0.97,2.8-2.28,2.8
					c-0.29,0-0.59-0.05-0.9-0.16l-11.12-3.9c-1.75-0.61-3.19-2.81-3.19-4.87v-50.62c0-1.11-0.19-1.67-0.5-1.67
					c-0.26,0-0.61,0.42-0.99,1.28l-10.01,22.51c-0.66,1.48-2.15,2.43-3.62,2.43c-0.36,0-0.72-0.06-1.07-0.18l-7.43-2.58
					c-1.75-0.61-3.78-2.66-4.5-4.56l-7.9-20.87c-0.34-0.9-0.65-1.34-0.88-1.34c-0.26,0-0.42,0.55-0.42,1.64v41.02
					c0,1.7-0.97,2.81-2.29,2.81c-0.28,0-0.59-0.05-0.9-0.16l-11.17-3.89c-1.75-0.61-3.19-2.8-3.19-4.87v-90.29
					c0-2.07,1.43-4.26,3.19-4.87l11.17-3.89C780.79,568.99,781.95,568.84,783.1,568.84"/>
			</g>
		</g>
		<path class="st33" d="M908.78,668.75l-24.3-51.81c-0.86-1.83-0.63-4.65,0.5-6.28l23.3-33.43c0.16-0.23,0.28-0.46,0.38-0.7
			c-0.26,0.15-0.57,0.29-0.92,0.42l-11.24,3.91c-1.01,0.35-2.32,0.54-3.7,0.54c-1.38,0-2.69-0.19-3.7-0.54l-4.14-1.44l-8.74,12.55
			c-1.13,1.63-2.76,1.46-3.62-0.37l-15.51-33.08c-0.4-0.86-1.09-1.75-1.88-2.52c-0.24,0.64-0.84,1.39-2.28,1.89l-9.29,3.23
			c0.6,1.27,1.2,2.56,1.65,3.52l18.56,39.52c0.86,1.83,0.63,4.65-0.5,6.28l-23.36,33.52c-0.11,0.16-0.25,0.33-0.38,0.5v13.9
			c0.55-0.08,1.07-0.19,1.51-0.35l11.17-3.89c1.75-0.61,4.12-2.44,5.25-4.06l14.59-20.93c1.13-1.63,2.76-1.46,3.62,0.37l15.56,33.13
			c0.86,1.83,0.12,3.82-1.63,4.43l-11.22,3.91c-1.75,0.61-1.75,1.61,0,2.22l11.17,3.89c1.75,0.61,4.62,0.61,6.38,0l11.17-3.89
			C908.9,672.57,909.64,670.58,908.78,668.75z"/>
		<path class="st33" d="M852.32,690.07l-11.24-3.91c-0.44-0.15-0.94-0.27-1.48-0.34v7.7c0,1.24-0.38,2.31-1.03,3.09
			c0.92-0.05,1.81-0.19,2.51-0.43l11.24-3.91C854.05,691.66,854.05,690.67,852.32,690.07z"/>
		<path class="st33" d="M797.5,670.99l-11.24-3.91c-0.44-0.15-0.94-0.27-1.49-0.34v7.7c0,1.24-0.38,2.31-1.03,3.1
			c0.92-0.05,1.81-0.19,2.51-0.43l11.24-3.91C799.23,672.58,799.23,671.6,797.5,670.99z"/>
	</g>
	<g>
		<g>
			<path class="st33" d="M995.8,676.63l-4.68-13.47h-0.09c0.12,2,0.19,3.88,0.19,5.63v7.84h-2.39V660.5h3.72l4.48,12.83h0.07
				l4.61-12.83h3.73v16.13h-2.54v-7.98c0-0.8,0.02-1.85,0.06-3.13s0.08-2.07,0.11-2.34h-0.09l-4.84,13.45H995.8z"/>
			<path class="st33" d="M1021.06,676.63h-9.12V660.5h9.12v2.23h-6.49v4.39h6.08v2.21h-6.08v5.06h6.49V676.63z"/>
			<path class="st33" d="M1032.37,676.63h-2.64v-13.87h-4.74v-2.26h12.12v2.26h-4.74V676.63z"/>
			<path class="st33" d="M1051.85,676.63l-1.61-4.48h-6.17l-1.58,4.48h-2.78l6.03-16.19h2.87l6.03,16.19H1051.85z M1049.55,669.88
				l-1.51-4.39c-0.11-0.29-0.26-0.76-0.46-1.39c-0.2-0.63-0.33-1.1-0.4-1.39c-0.2,0.9-0.49,1.89-0.87,2.97l-1.46,4.2H1049.55z"/>
			<path class="st33" d="M1076.29,676.63h-9.12V660.5h9.12v2.23h-6.49v4.39h6.08v2.21h-6.08v5.06h6.49V676.63z"/>
			<path class="st33" d="M1093.92,676.63h-3.03l-4.04-6.6l-4.07,6.6h-2.82l5.35-8.36l-5.01-7.77h2.93l3.73,6.1l3.73-6.1h2.85
				l-5.04,7.81L1093.92,676.63z"/>
			<path class="st33" d="M1109.03,665.38c0,1.68-0.55,2.97-1.65,3.87c-1.1,0.9-2.67,1.35-4.71,1.35h-1.68v6.03h-2.64V660.5h4.64
				c2.02,0,3.52,0.41,4.53,1.24C1108.52,662.56,1109.03,663.78,1109.03,665.38z M1100.98,668.38h1.4c1.35,0,2.35-0.24,2.98-0.71
				c0.63-0.47,0.95-1.21,0.95-2.21c0-0.93-0.28-1.62-0.85-2.07c-0.57-0.46-1.45-0.68-2.65-0.68h-1.83V668.38z"/>
			<path class="st33" d="M1123.63,676.63h-9.12V660.5h9.12v2.23h-6.49v4.39h6.08v2.21h-6.08v5.06h6.49V676.63z"/>
			<path class="st33" d="M1132.01,670.19v6.44h-2.64V660.5h4.56c2.08,0,3.62,0.39,4.62,1.17c1,0.78,1.5,1.96,1.5,3.53
				c0,2.01-1.04,3.44-3.13,4.29l4.56,7.14h-3l-3.86-6.44H1132.01z M1132.01,668.01h1.83c1.23,0,2.12-0.23,2.67-0.68
				c0.55-0.46,0.83-1.13,0.83-2.03c0-0.91-0.3-1.57-0.89-1.96c-0.6-0.4-1.49-0.6-2.69-0.6h-1.74V668.01z"/>
			<path class="st33" d="M1146.07,676.63V660.5h2.64v16.13H1146.07z"/>
			<path class="st33" d="M1162.2,676.63l-4.68-13.47h-0.09c0.12,2,0.19,3.88,0.19,5.63v7.84h-2.39V660.5h3.72l4.48,12.83h0.07
				l4.61-12.83h3.73v16.13h-2.54v-7.98c0-0.8,0.02-1.85,0.06-3.13s0.08-2.07,0.11-2.34h-0.09l-4.84,13.45H1162.2z"/>
			<path class="st33" d="M1187.45,676.63h-9.12V660.5h9.12v2.23h-6.49v4.39h6.08v2.21h-6.08v5.06h6.49V676.63z"/>
			<path class="st33" d="M1206.63,676.63h-3.23l-7.93-12.85h-0.09l0.06,0.72c0.1,1.37,0.15,2.62,0.15,3.75v8.38h-2.39V660.5h3.2
				l7.91,12.78h0.07c-0.01-0.17-0.04-0.78-0.09-1.85c-0.04-1.06-0.07-1.89-0.07-2.49v-8.45h2.42V676.63z"/>
			<path class="st33" d="M1218.72,676.63h-2.64v-13.87h-4.74v-2.26h12.12v2.26h-4.74V676.63z"/>
			<path class="st33" d="M1238.2,676.63l-1.61-4.48h-6.17l-1.58,4.48h-2.78l6.03-16.19h2.87l6.03,16.19H1238.2z M1235.89,669.88
				l-1.51-4.39c-0.11-0.29-0.26-0.76-0.46-1.39c-0.2-0.63-0.33-1.1-0.4-1.39c-0.2,0.9-0.49,1.89-0.87,2.97l-1.46,4.2H1235.89z"/>
			<path class="st33" d="M1245.39,676.63V660.5h2.64v13.87h6.83v2.26H1245.39z"/>
		</g>
		<path class="st33" d="M1264.55,634.55l-13.3-19.13l-13.06,19.12c-0.21,0.31-0.57,0.5-0.94,0.5h-12.17c-0.93,0-1.47-1.06-0.92-1.81
			l19.59-26.92l-17.6-24.6c-0.95-1.32,0-3.16,1.63-3.16h9.93c0.65,0,1.26,0.31,1.63,0.84l10.75,15.16c0.8,1.13,2.48,1.12,3.27-0.01
			l10.53-15.13c0.37-0.54,0.99-0.86,1.64-0.86h9.17c1.63,0,2.58,1.85,1.62,3.17l-17.41,24.11l19.76,27.41
			c0.54,0.76,0,1.81-0.93,1.81h-12.27C1265.11,635.04,1264.76,634.86,1264.55,634.55z"/>
		<g>
			<path class="st33" d="M1057.92,611.47h25.09c0.63,0,1.14-0.51,1.14-1.14v-7.03c0-1.1-0.9-2-2-2h-22.23c-1.1,0-2-0.9-2-2v-8.27
				c0-1.1,0.9-2,2-2h25.71c1.1,0,2-0.9,2-2v-6.49c0-1.1-0.9-2-2-2h-38.7c-1.1,0-2,0.9-2,2v53.36c0,0.63,0.51,1.14,1.14,1.14h41.47
				c0.63,0,1.14-0.51,1.14-1.14v-8.21c0-0.63-0.51-1.14-1.14-1.14h-29.61V611.47z"/>
			<path class="st33" d="M1148.02,578.54h-45.24c-1.1,0-2,0.9-2,2v6.65c0,1.1,0.9,2,2,2h14.08c1.1,0,2,0.9,2,2v42.71
				c0,0.63,0.51,1.14,1.14,1.14h10.79c0.63,0,1.14-0.51,1.14-1.14v-42.71c0-1.1,0.9-2,2-2h14.08c1.1,0,2-0.9,2-2v-6.65
				C1150.02,579.43,1149.12,578.54,1148.02,578.54z"/>
			<path class="st33" d="M1205.28,635.04h11.19c0.83,0,1.38-0.85,1.04-1.61l-24.02-53.71c-0.32-0.72-1.04-1.18-1.83-1.18h-10.32
				c-0.79,0-1.51,0.46-1.83,1.19l-23.94,53.71c-0.34,0.76,0.22,1.61,1.04,1.61h11.64h0.07l3.61-8.71h28.96l3.32,8.01
				C1204.4,634.76,1204.81,635.04,1205.28,635.04z M1177.36,613.25l7.22-17.42c0.68-1.65,3.01-1.65,3.7,0l7.21,17.42H1177.36z"/>
		</g>
		<path class="st33" d="M1021.79,578.79h-7.57c-0.7,0-1.35,0.37-1.71,0.98l-20.15,33.98l-21.05-34.95h-10.77v55.11
			c0,0.63,0.51,1.14,1.14,1.14h9.94c0.63,0,1.14-0.51,1.14-1.14v-28.72c0-0.9,1.18-1.23,1.65-0.46l14.83,24.37h5.87l14.91-25.04
			c0.46-0.77,1.65-0.45,1.65,0.45l0.07,29.4c0,0.63,0.51,1.13,1.14,1.13h9.94c0.63,0,1.14-0.51,1.14-1.14l-0.15-53.12
			C1023.77,579.68,1022.88,578.79,1021.79,578.79z"/>
	</g>
</g>
</svg>
